<?xml version="1.0" encoding="utf-8"?>
<!-- Generator: Adobe Illustrator 20.1.0, SVG Export Plug-In . SVG Version: 6.00 Build 0)  -->
<svg version="1.1" id="Layer_1" xmlns="http://www.w3.org/2000/svg" xmlns:xlink="http://www.w3.org/1999/xlink" x="0px" y="0px"
	 viewBox="0 0 1131.1 751.3" style="enable-background:new 0 0 1131.1 751.3;" xml:space="preserve">
<style type="text/css">
	.st0{fill:#6D5A9B;}
	.st1{fill:none;}
	.st2{fill:#6D4B57;}
	.st3{fill:#593977;}
	.st4{fill:#0560CE;}
	.st5{fill:#68434E;}
	.st6{fill:#604684;}
	.st7{fill:#0D6FFC;}
	.st8{fill:#603541;}
	.st9{fill:#6C5599;}
	.st10{fill:#6D4752;}
	.st11{fill:#6B4D59;}
	.st12{fill:#48111B;stroke:#512733;stroke-width:0.7725;stroke-miterlimit:10;}
	.st13{fill:#4C1521;stroke:#512733;stroke-width:0.7725;stroke-miterlimit:10;}
	.st14{fill:#512531;stroke:#42212A;stroke-width:0.3522;stroke-miterlimit:10;}
	.st15{fill:#593977;stroke:#8C72CB;stroke-width:0.3522;stroke-miterlimit:10;}
	.st16{fill:#C1B4B8;stroke:#7C6069;stroke-width:0.2499;stroke-miterlimit:10;}
	.st17{fill:#EFE8EB;stroke:#776A6F;stroke-width:9.087866e-02;stroke-miterlimit:10;}
	.st18{fill:#C1B4B8;stroke:#7C6069;stroke-width:0.2272;stroke-miterlimit:10;}
	.st19{fill:#C1B4B8;stroke:#7C6069;stroke-width:9.087866e-02;stroke-miterlimit:10;}
	.st20{fill:#E8E3E5;stroke:#7C6069;stroke-width:3.407950e-02;stroke-miterlimit:10;}
	.st21{fill:#E2DEDF;stroke:#7C6069;stroke-width:0.1022;stroke-miterlimit:10;}
	.st22{fill:#EFCCC7;}
	.st23{fill:#49232D;}
	.st24{fill:#5B2E39;}
	.st25{fill:#4C222B;}
	.st26{fill:#167EF9;}
	.st27{fill:#1C8BF9;}
	.st28{fill:#4080FF;}
	.st29{fill:#036AE5;}
	.st30{fill:#056ED6;}
	.st31{fill:#512531;stroke:#8C72CB;stroke-width:0.3522;stroke-miterlimit:10;}
	.st32{fill:#4C222B;stroke:#8C72CB;stroke-width:1.011;stroke-miterlimit:10;}
	.st33{fill:#47036B;}
	.st34{fill:#E6F5FC;}
	.st35{fill:#FFFFFF;}
	.st36{fill:#510375;}
	.st37{fill:#512733;}
	.st38{fill:#703C49;}
	.st39{fill:#3F1220;}
	.st40{fill:#481520;}
	.st41{fill:#542D3A;}
	.st42{fill:#341610;}
	.st43{fill:#5B3934;}
	.st44{fill:#421F59;}
	.st45{fill:#5B061D;}
	.st46{fill:#66423C;}
	.st47{fill:#472824;}
	.st48{fill:#593A43;}
	.st49{fill:#84453A;}
	.st50{fill:#082AF2;stroke:#2B040F;stroke-width:0.3862;stroke-miterlimit:10;}
	.st51{fill:#1640EF;stroke:#0D6FFC;stroke-width:0.159;stroke-miterlimit:10;}
	.st52{fill:#2B040F;}
	.st53{fill:#DDF0ED;}
	.st54{fill:#1C0E0E;stroke:#0909B7;stroke-width:1.5563;stroke-miterlimit:10;}
	.st55{fill:#86B4F7;}
	.st56{fill:#030202;}
	.st57{fill:#0F0E0E;}
	.st58{fill:#F4E4E4;}
	.st59{fill:#F9F9F9;}
	.st60{opacity:0.87;fill:#2B040F;enable-background:new    ;}
</style>
<title>Untitled-2</title>
<g>
	<path class="st0" d="M723.4,477.2l-7.3-0.7l-13.8-1.3l-47.7-4.6l-14.2,33.8l1.9,0.4L623.8,532v0.5l1.4,0.7l-16.7,23.9l-0.8-0.6
		L588.6,576l0.1,0.2l-14.3,12.9l0.2,1.9l-10.4-24.2l0,0l0,0l0,0L553.8,591l0.2-1.9l-14.3-12.9l0.1-0.2l-19.1-19.5L520,557l-16.6-24
		l1.4-0.7v-0.5l-18.3-27.4l1.9-0.4l-14-33.9l-47.7,4.4l-13.8,1.3l-7.3,0.7c-4,0.4-7,4-6.6,8c0.1,1.2,0.6,2.4,1.3,3.5
		c7.8,6.4,13.9,14.6,17.9,23.9l0.9,2.1c-5.6,2.9-7.8,9.7-4.9,15.3c0.2,0.4,0.5,0.9,0.8,1.3l27.1,27.2l-5.4,2.3
		c-4.9,2.2-7.1,7.9-4.9,12.8c0.6,1.3,1.4,2.4,2.5,3.3l0.5,0.4c8.8,5.6,16.9,12.2,24.1,19.7l3.7,3.8l-2.4,1.8c-2.8,2-3.8,5.6-2.7,8.8
		c2.9,7.9,9.6,13.9,17.7,15.9l22.6,5.7v0.1c-2.6,4.6-0.9,10.5,3.7,13.1c0.5,0.3,1,0.5,1.5,0.7l1.9,0.7c5.3,1.8,10.1,4.7,14.1,8.6
		l4.8,4.6l-3.1,7.1c-2.6,12.4,3.5,25,15,30.6l28,17.6l0,0l0,0l0,0l0,0l28.1-17.4c11.4-5.5,17.7-18.1,15.1-30.5l-2.9-7.2l4.8-4.6
		c4-3.9,8.9-6.8,14.2-8.5l1.9-0.6c5-1.7,7.7-7.1,6-12.2c-0.2-0.5-0.4-1.1-0.7-1.6v-0.1l22.7-5.6c8.2-2,14.8-7.9,17.8-15.8
		c1.2-3.2,0.1-6.8-2.6-8.9l-2.5-1.8l3.7-3.8c7.3-7.5,15.4-14,24.2-19.6l0.5-0.4c4.1-3.5,4.5-9.6,1-13.7c-0.9-1.1-2.1-1.9-3.3-2.5
		l-5.4-2.3l27.3-27c3.6-5.1,2.3-12.2-2.8-15.8c-0.4-0.3-0.8-0.5-1.3-0.8l0.9-2c4-9.3,10.2-17.5,18-23.9c2.3-3.4,1.4-7.9-2-10.2
		C725.8,477.7,724.6,477.3,723.4,477.2z"/>
	<path class="st1" d="M394.4,389.5c-3.9,3.1-7.8,6.1-11.6,8.8c-4.8-0.3-9.8-0.8-15.1-1.4c5.7-2.5,11.2-5.4,16.5-8.5
		C387.8,388.9,391.2,389.4,394.4,389.5z"/>
	<path class="st1" d="M416.3,362.9l5.4,0.5c-8.3,9.5-17.5,18.3-27.5,26.1c-3.3-0.3-6.7-0.6-10.2-0.9
		C396,381.6,406.8,373,416.3,362.9z"/>
	<path class="st2" d="M689.2,511c1.1-3.6,1.8-7.2,2.1-10.9c1.1-12.6,6-20.3,11.1-24.9l-47.7-4.6l-14.2,33.8l1.9,0.4l0.2-0.4
		L689.2,511z"/>
	<path class="st3" d="M723.4,477.2l-7.3-0.7c-4.3,5.4-7.9,13.2-8.9,24.4c-0.3,4.2-1.1,8.3-2.3,12.3l1.3,0.2c1.3,0.2,2.5,0.6,3.6,1.1
		l0.9-2c4-9.3,10.2-17.5,18-23.9c2.3-3.4,1.4-7.9-2-10.2C725.8,477.7,724.6,477.3,723.4,477.2z"/>
	<path class="st4" d="M691.2,500.1c-0.3,3.7-1,7.4-2.1,10.9l15.7,2.3c1.2-4,1.9-8.2,2.3-12.3c1-11.2,4.6-19,8.9-24.4l-13.8-1.3
		C697.3,479.8,692.4,487.4,691.2,500.1z"/>
	<path class="st5" d="M689.2,511l-46.6-6.7l-0.2,0.4l45.9,9C688.6,512.8,688.9,511.9,689.2,511z"/>
	<path class="st5" d="M655.2,545c3.3-6.3,8.7-11.2,15.3-13.9c0,0,11.8-2,17.8-17.4l-45.9-9L623.9,532v0.5l1.4,0.7l0.5-0.7L655.2,545
		z"/>
	<path class="st6" d="M703.7,516.7c-6.8,17.5-20.2,19.7-20.2,19.7c-6.7,2.7-12.4,7.5-16.2,13.6l19.3,8.2l27.3-27
		c3.6-5.1,2.3-12.2-2.8-15.8c-0.4-0.3-0.8-0.5-1.3-0.8l-1.3,3L703.7,516.7z"/>
	<path class="st6" d="M704.9,513.2c-0.4,1.2-0.7,2.3-1.1,3.4l4.8,0.9l1.3-3c-1.1-0.6-2.4-1-3.6-1.1L704.9,513.2z"/>
	<path class="st7" d="M670.5,531.1c-6.6,2.6-12,7.6-15.3,13.9l12.1,5.1c3.8-6.2,9.5-10.9,16.2-13.6c0,0,13.4-2.3,20.2-19.7
		l-15.4-3.1C682.3,529.1,670.5,531.1,670.5,531.1z"/>
	<path class="st7" d="M688.3,513.7l15.4,3c0.4-1.1,0.8-2.2,1.1-3.4l-15.7-2.3C688.9,511.9,688.6,512.8,688.3,513.7z"/>
	<path class="st8" d="M655.2,545l-29.4-12.4l-0.5,0.7l28.4,15.1C654.1,547.2,654.6,546,655.2,545z"/>
	<path class="st8" d="M651.8,555.6c0.4-2.5,1-4.9,1.9-7.3l-28.4-15.1l-16.7,23.9l27.7,20.9C643.1,575.6,649.6,570.6,651.8,555.6z"/>
	<path class="st9" d="M665,554.3c-1.4,3.2-2.4,6.6-2.9,10.1c-2,13.5-7.1,19.9-12.9,23.4l16.7,12.6l3.7-3.8
		c7.3-7.5,15.4-14,24.2-19.6l0.5-0.4c4.1-3.5,4.5-9.6,1-13.7c-0.9-1.1-2.1-1.9-3.3-2.5l-5.4-2.3l-5,4.9L665,554.3z"/>
	<path class="st9" d="M665,554.3l16.7,8.8l5-4.9l-19.3-8.2C666.5,551.4,665.7,552.8,665,554.3z"/>
	<path class="st4" d="M651.8,555.6c-2.3,15-8.7,20-15.5,22.5l12.9,9.7c5.9-3.5,10.9-9.9,12.9-23.4c0.5-3.5,1.5-6.9,2.9-10.1l-11.4-6
		C652.8,550.7,652.2,553.1,651.8,555.6z"/>
	<path class="st4" d="M653.7,548.3l11.4,6c0.7-1.5,1.4-2.9,2.3-4.3l-12.1-5.1C654.7,546,654.2,547.2,653.7,548.3z"/>
	<path class="st6" d="M643.5,590.5c-2,0.7-4,1.2-5.9,1.7c-7.4,2-17.4,6.6-22.5,16.6l15.3,23.7l22.7-5.6c8.2-2,14.8-7.9,17.8-15.8
		c1.2-3.2,0.1-6.8-2.6-8.9l-2.4-1.8l-5.1,5.2L643.5,590.5z"/>
	<path class="st6" d="M643.5,590.5l17.3,15.2l5.1-5.2l-16.7-12.6C647.4,588.9,645.5,589.8,643.5,590.5z"/>
	<path class="st5" d="M608.8,599.1c3.5-12.1,14-17.2,21.6-19.2l0.9-0.2l-23.8-20.9l1.1-1.5l-0.8-0.6L588.6,576l0.1,0.2l3.3-3
		L608.8,599.1z"/>
	<path class="st5" d="M631.3,579.7c1.7-0.4,3.3-0.9,5-1.6l-27.7-20.9l-1.1,1.5L631.3,579.7z"/>
	<path class="st7" d="M630.3,579.9c-7.5,2-18.1,7.1-21.6,19.2l6.3,9.7c5.2-10,15.1-14.6,22.5-16.6c1.9-0.5,3.9-1.1,5.9-1.7
		l-12.2-10.8L630.3,579.9z"/>
	<path class="st7" d="M631.3,579.7l12.2,10.8c2-0.7,3.9-1.5,5.7-2.6l-12.9-9.7C634.6,578.8,632.9,579.2,631.3,579.7z"/>
	<path class="st10" d="M607.4,606.9l-18.6-30.7l-14.3,12.9l0.2,1.9l14.9,34.8C596.7,623.5,604.8,619.1,607.4,606.9z"/>
	<path class="st10" d="M607.8,605c0.2-2,0.5-3.9,1.1-5.9l-16.7-26l-3.3,3l18.6,30.7C607.5,606.3,607.6,605.7,607.8,605z"/>
	<path class="st3" d="M612.6,615.6c-0.4,1.7-0.7,3.5-0.9,5.3c-1.9,12.3-8.3,18.2-15.2,21.6l7.6,17.7l4.8-4.6c4-3.9,8.9-6.8,14.2-8.5
		l1.9-0.6c5-1.7,7.7-7.1,6-12.2c-0.2-0.5-0.4-1.1-0.7-1.6v-0.1l-6.5,1.6L612.6,615.6z"/>
	<path class="st3" d="M612.6,615.6l11.2,18.5l6.5-1.6l-15.3-23.7C614,611,613.2,613.2,612.6,615.6z"/>
	<path class="st4" d="M589.5,625.8l7.1,16.6c6.8-3.4,13.3-9.2,15.2-21.6c0.2-1.8,0.4-3.5,0.9-5.3l-5.3-8.7
		C604.8,619.1,596.7,623.5,589.5,625.8z"/>
	<path class="st4" d="M607.8,605c-0.1,0.7-0.2,1.3-0.4,1.9l5.3,8.7c0.5-2.4,1.4-4.7,2.5-6.8l-6.3-9.7C608.3,601,607.9,603,607.8,605
		z"/>
	<path class="st7" d="M580.5,647.9l-1.9-18.6c-5.7,2.3-11.6,5.8-14.5,11.8v17.4C568.2,653.1,574.6,649.9,580.5,647.9z"/>
	<path class="st7" d="M585.2,627.1c-2.2,0.6-4.4,1.3-6.6,2.1l1.9,18.6c1.9-0.7,3.7-1.2,5.4-1.7c3.7-0.9,7.2-2.2,10.7-3.8l-7.1-16.6
		C588,626.3,586.5,626.8,585.2,627.1z"/>
	<path class="st11" d="M578.6,629.3l-4-38.3l-10.4-24.3l-0.2,74.3C567,635,572.9,631.5,578.6,629.3z"/>
	<path class="st11" d="M585.2,627.1c1.4-0.4,2.9-0.8,4.4-1.3L574.7,591l4,38.3C580.8,628.5,583,627.7,585.2,627.1z"/>
	<path class="st0" d="M580.5,647.9c-6,2.1-12.4,5.3-16.5,10.7l-0.1,56.7l28.2-17.4c11.4-5.5,17.7-18.1,15.1-30.5l-3-7.1l-20.3,19.4
		L580.5,647.9z"/>
	<path class="st0" d="M585.9,646.2c-1.7,0.5-3.5,1-5.4,1.7l3.3,31.6l20.4-19.4l-7.6-17.7C593.2,644,589.6,645.3,585.9,646.2z"/>
	<path class="st2" d="M439.6,510.4c-1.1-3.6-1.7-7.2-2-11c-1.1-12.6-5.9-20.3-10.9-25l47.7-4.4l13.9,33.9l-1.9,0.4l-0.2-0.4
		L439.6,510.4z"/>
	<path class="st3" d="M405.5,476.5l7.3-0.7c4.2,5.4,7.8,13.2,8.8,24.5c0.3,4.2,1.1,8.3,2.3,12.3l-1.3,0.2c-1.3,0.2-2.5,0.6-3.6,1.1
		l-0.9-2.1c-4-9.3-10.1-17.4-17.9-23.9c-2.3-3.3-1.5-7.9,1.8-10.2C403.1,477,404.3,476.6,405.5,476.5z"/>
	<path class="st4" d="M437.6,499.5c0.3,3.7,1,7.4,2,11l-15.7,2.2c-1.2-4-1.9-8.2-2.3-12.3c-1-11.2-4.5-19.1-8.8-24.5l13.8-1.3
		C431.7,479.2,436.5,486.9,437.6,499.5z"/>
	<path class="st5" d="M439.6,510.4l46.6-6.5l0.2,0.4l-46,8.8C440.2,512.3,439.9,511.4,439.6,510.4z"/>
	<path class="st5" d="M473.4,544.5c-3.2-6.3-8.6-11.3-15.2-13.9c0,0-11.8-2-17.7-17.5l46-8.8l18.3,27.4v0.5l-1.4,0.7l-0.5-0.7
		L473.4,544.5z"/>
	<path class="st6" d="M425.1,516c6.7,17.5,20.1,19.8,20.1,19.8c6.7,2.7,12.4,7.5,16.1,13.7l-19.4,8.1l-27.1-27.2
		c-3.6-5.2-2.3-12.2,2.9-15.8c0.4-0.3,0.8-0.5,1.3-0.8l1.3,3L425.1,516z"/>
	<path class="st6" d="M423.9,512.6c0.4,1.2,0.7,2.3,1.1,3.4l-4.8,0.9l-1.2-3c1.1-0.6,2.4-1,3.6-1.1L423.9,512.6z"/>
	<path class="st7" d="M458.2,530.6c6.6,2.7,12,7.6,15.2,13.9l-12.1,5c-3.8-6.2-9.4-11-16.1-13.7c0,0-13.4-2.3-20.1-19.8l15.4-2.9
		C446.4,528.6,458.2,530.6,458.2,530.6z"/>
	<path class="st7" d="M440.5,513.1l-15.4,2.9c-0.4-1.1-0.8-2.2-1.1-3.4l15.7-2.2C439.9,511.4,440.2,512.3,440.5,513.1z"/>
	<path class="st8" d="M473.4,544.5l29.5-12.2l0.5,0.7L474.9,548C474.5,546.8,474,545.6,473.4,544.5z"/>
	<path class="st8" d="M476.8,555.2c-0.4-2.5-1-4.9-1.9-7.3l28.5-14.9l16.6,24l-27.8,20.8C485.4,575.2,478.9,570.2,476.8,555.2z"/>
	<path class="st9" d="M463.6,553.9c1.4,3.2,2.4,6.6,2.9,10.1c2,13.5,7,19.9,12.8,23.5L462.5,600l-3.7-3.8
		c-7.2-7.5-15.3-14.1-24.1-19.8l-0.5-0.4c-4-3.5-4.5-9.7-0.9-13.7c0.9-1.1,2.1-1.9,3.3-2.5l5.4-2.3l4.9,4.9L463.6,553.9z"/>
	<path class="st9" d="M463.6,553.9l-16.7,8.7l-4.9-4.9l19.4-8.1C462.2,551,462.9,552.4,463.6,553.9z"/>
	<path class="st4" d="M476.8,555.2c2.2,15,8.6,20,15.4,22.6l-13,9.7c-5.9-3.6-10.9-10-12.8-23.5c-0.5-3.5-1.4-6.9-2.9-10.1l11.4-5.9
		C475.8,550.3,476.4,552.7,476.8,555.2z"/>
	<path class="st4" d="M474.9,547.9l-11.4,5.9c-0.7-1.5-1.4-2.9-2.3-4.3l12.1-5C473.9,545.6,474.5,546.8,474.9,547.9z"/>
	<path class="st6" d="M484.9,590.1c2,0.7,4,1.2,5.9,1.8c7.4,2,17.3,6.6,22.4,16.7l-15.4,23.6l-22.6-5.7c-8.2-2-14.8-8-17.7-15.9
		c-1.2-3.2-0.1-6.8,2.7-8.8l2.4-1.8l5.1,5.2L484.9,590.1z"/>
	<path class="st6" d="M484.9,590.1l-17.3,15.1l-5.1-5.2l16.7-12.5C481.1,588.6,483,589.4,484.9,590.1z"/>
	<path class="st5" d="M519.6,598.9c-3.4-12.1-13.9-17.3-21.5-19.3l-0.9-0.2l23.9-20.8L520,557l0.8-0.6l19.1,19.5l-0.1,0.2l-3.3-3
		L519.6,598.9z"/>
	<path class="st5" d="M497.2,579.4c-1.7-0.5-3.3-0.9-5-1.6L520,557l1.1,1.5L497.2,579.4z"/>
	<path class="st7" d="M498.1,579.6c7.5,2.1,18,7.2,21.5,19.3l-6.3,9.7c-5.1-10.1-15-14.7-22.4-16.7c-1.9-0.5-3.9-1.1-5.9-1.8
		l12.3-10.7L498.1,579.6z"/>
	<path class="st7" d="M497.2,579.4l-12.3,10.7c-2-0.7-3.9-1.6-5.7-2.6l13-9.7C493.9,578.4,495.6,578.9,497.2,579.4z"/>
	<path class="st10" d="M521,606.7l18.8-30.7L554,589l-0.2,1.9l-15.1,34.8C531.5,623.3,523.5,619,521,606.7z"/>
	<path class="st10" d="M520.6,604.8c-0.1-2-0.5-3.9-1-5.9l16.9-25.9l3.3,3L521,606.7C520.8,606.1,520.7,605.5,520.6,604.8z"/>
	<path class="st3" d="M515.7,615.4c0.4,1.7,0.7,3.5,0.8,5.3c1.8,12.3,8.2,18.2,15.1,21.6l-7.6,17.7l-4.8-4.6
		c-4-3.9-8.8-6.8-14.1-8.6l-1.9-0.7c-5-1.7-7.7-7.2-6-12.2c0.2-0.5,0.4-1.1,0.7-1.5v-0.1l6.5,1.6L515.7,615.4z"/>
	<path class="st3" d="M515.7,615.4l-11.4,18.5l-6.5-1.6l15.4-23.6C514.3,610.7,515.1,613,515.7,615.4z"/>
	<path class="st4" d="M538.7,625.7l-7.2,16.6c-6.8-3.4-13.2-9.3-15.1-21.6c-0.1-1.8-0.4-3.5-0.8-5.3l5.3-8.6
		C523.5,619,531.5,623.3,538.7,625.7z"/>
	<path class="st4" d="M520.6,604.8c0.1,0.7,0.2,1.3,0.4,1.9l-5.3,8.6c-0.5-2.4-1.3-4.6-2.4-6.8l6.3-9.7
		C520.1,600.8,520.4,602.8,520.6,604.8z"/>
	<path class="st7" d="M547.6,647.8l2-18.6c5.7,2.3,11.6,5.8,14.5,11.9v17.4C560,653.1,553.6,649.9,547.6,647.8z"/>
	<path class="st7" d="M543.1,627c2.2,0.6,4.4,1.3,6.5,2.2l-2,18.6c-1.9-0.7-3.7-1.2-5.4-1.7c-3.7-0.9-7.2-2.2-10.7-3.8l7.2-16.6
		C540.3,626.2,541.7,626.7,543.1,627z"/>
	<path class="st11" d="M549.7,629.2l4.2-38.3l10.5-24.2l-0.2,74.3C561.2,635,555.4,631.5,549.7,629.2z"/>
	<path class="st11" d="M543.1,627c-1.4-0.4-2.8-0.8-4.4-1.3l15.1-34.8l-4.1,38.3C547.5,628.4,545.3,627.7,543.1,627z"/>
	<path class="st0" d="M547.6,647.8c6,2.1,12.4,5.3,16.4,10.7l-0.1,56.7l-28.1-17.6c-11.4-5.6-17.6-18.2-15-30.6l3.1-7.1l20.2,19.5
		L547.6,647.8z"/>
	<path class="st0" d="M542.2,646.1c1.7,0.5,3.5,1,5.4,1.7l-3.4,31.6L524,659.9l7.6-17.7C535,643.9,538.6,645.1,542.2,646.1z"/>
	<path class="st12" d="M563.7,456.2l-35.9,112c0,0-46.4,10.2-35.9-34.8S563.7,456.2,563.7,456.2z"/>
	<path class="st13" d="M564.2,462.9l1,150.8c0,0-32.1-2.5-39.8-31.6C517.8,553,564.2,462.9,564.2,462.9z"/>
	<path class="st13" d="M566.1,455.7l-71.5,66.9c0,0-38.1,10.1-34.6-29.5S566.1,455.7,566.1,455.7z"/>
	<path class="st12" d="M564.5,452.6l-86.2,19.7c-6.7,1.6-13.6-1.1-17.4-6.8c-2.6-4.2-3.4-9.6,2.3-15.8
		C474.7,437.2,564.5,452.6,564.5,452.6z"/>
	<path class="st12" d="M562.7,462.9l1.9,150.8c0,0,32.1-3.2,39.1-32.4C610.7,552.1,562.7,462.9,562.7,462.9z"/>
	<path class="st12" d="M564.1,460l71.3,67.3c0,0,37.9,10.2,34.6-29.4S564.1,460,564.1,460z"/>
	<path class="st13" d="M564.1,454.9l86.2,20c6.7,1.6,13.6-1.1,17.4-6.8c2.6-4.2,3.4-9.6-2.3-15.8C653.9,440,564.1,454.9,564.1,454.9
		z"/>
	<path class="st13" d="M563.9,460l39.9,110.7c0,0,46.9,8.5,34.6-36S563.9,460,563.9,460z"/>
	<path class="st14" d="M567.2,291v260c0,0-2.2-46.8-27.8-70.8c-11.5-10.9-25.2-9.9-52.8-24.2c-34.3-17.7-65.2-108.6,1.1-164
		C545.1,291.6,567.2,291,567.2,291z"/>
	<path class="st14" d="M565,291.5v260c0,0,2.2-46.8,27.8-70.8c11.5-10.9,25.2-9.9,52.8-24.2c34.3-17.7,65.2-108.6-1.1-164
		C587,292.3,565,291.5,565,291.5z"/>
	<path class="st15" d="M614.9,520.9l1.2,20.1c0.2,2.8,0.8,5.6,2,8.3c1.8,4.2,4.5,8.5,8,8.6c3.5,0.2,7-1.3,8.4-7.2
		C637.1,539.1,614.9,520.9,614.9,520.9z"/>
	<path class="st16" d="M622.1,533.4l0.3,8.5c0.2,1.3,0.6,2.6,1.1,3.9c1,2,2.3,4,3.8,4.1c1.5,0.1,3-0.5,3.4-3.2
		C631.5,541.4,622.1,533.4,622.1,533.4z"/>
	<path class="st17" d="M625.1,539.3l0.1,3.7c0.1,0.6,0.3,1.2,0.5,1.7c0.3,0.8,0.9,1.5,1.7,1.8c0.7,0.1,1.4-0.4,1.5-1.2
		c0-0.1,0-0.2,0-0.2C629.3,542.8,625.1,539.3,625.1,539.3z"/>
	<path class="st15" d="M497.4,545.9c1.2,5.9,4.7,7.5,8.1,7.4s6.3-4.3,8.2-8.4c1.2-2.6,2-5.3,2.3-8.2l1.9-20
		C517.9,516.7,495,534.2,497.4,545.9z"/>
	<path class="st16" d="M501.2,542.1c0.3,2.7,1.8,3.4,3.3,3.3c1.5-0.1,2.9-2.1,3.9-4c0.6-1.2,1.1-2.5,1.3-3.8l0.6-8.5
		C510.3,529.1,500.6,536.7,501.2,542.1z"/>
	<path class="st17" d="M503,540.5c-0.1,0.7,0.5,1.4,1.2,1.4c0.1,0,0.2,0,0.2,0c0.8-0.3,1.4-0.9,1.7-1.8c0.3-0.5,0.5-1.1,0.6-1.7
		l0.3-3.7C507,534.8,502.8,538.2,503,540.5z"/>
	<path class="st15" d="M637.3,479.6l8.7,16.1c1.2,2.3,2.8,4.3,4.7,6c3.1,2.7,6.9,5.3,9.9,4.1c2.9-1.2,5.2-3.8,4.2-9.1
		C662.7,486.1,637.3,479.6,637.3,479.6z"/>
	<path class="st18" d="M648,487.3l3.5,6.8c0.7,1,1.5,2,2.4,2.7c1.5,1.2,3.4,2.4,4.7,2c1.3-0.5,2.3-1.6,1.6-3.9
		C658.9,490.2,648,487.3,648,487.3z"/>
	<path class="st17" d="M652.8,490.9l1.5,3c0.3,0.5,0.7,0.9,1.1,1.2c0.5,0.6,1.3,0.9,2.1,0.9c0.6-0.2,1-0.9,0.8-1.6
		c0-0.1,0-0.1-0.1-0.2C657.6,492.2,652.8,490.9,652.8,490.9z"/>
	<path class="st15" d="M492.9,477l-9.4,15.7c-1.3,2.2-3,4.2-5,5.9c-3.2,2.6-7.1,5-10,3.7c-2.9-1.3-5.1-4-3.8-9.3
		C467.4,482.5,492.9,477,492.9,477z"/>
	<path class="st18" d="M481.9,484.2l-3.8,6.7c-0.7,1-1.6,1.9-2.5,2.6c-1.6,1.1-3.5,2.3-4.8,1.8c-1.3-0.5-2.2-1.7-1.4-4
		C471,486.7,481.9,484.2,481.9,484.2z"/>
	<path class="st17" d="M477,487.7l-1.7,3c-0.3,0.4-0.7,0.8-1.1,1.1c-0.5,0.6-1.3,0.8-2.1,0.8c-0.6-0.2-0.9-1-0.7-1.6
		c0-0.1,0-0.1,0.1-0.2C472.2,488.8,477,487.7,477,487.7z"/>
	<path class="st15" d="M649.7,457.8l6.3,3.3c0.9,0.5,1.9,0.8,2.9,0.9c1.6,0.2,3.3,0.1,4-1c0.8-1.3,0.5-3.1-0.8-4
		C659,453.9,649.7,457.8,649.7,457.8z"/>
	<path class="st19" d="M655.2,457.8l3,1.4c0.4,0.2,0.9,0.3,1.4,0.4c0.7,0.2,1.4,0,1.9-0.4c0.4-0.5,0.3-1.2-0.2-1.6
		c-0.1,0-0.1-0.1-0.2-0.1C659.7,456.2,655.2,457.8,655.2,457.8z"/>
	<path class="st20" d="M658.2,457.8l1.3,0.7c0.2,0.1,0.4,0.2,0.6,0.2c0.3,0.1,0.6,0,0.9-0.1c0.2-0.2,0.1-0.6-0.1-0.7c0,0,0,0,0,0
		C660.3,457.2,658.2,457.8,658.2,457.8z"/>
	<path class="st15" d="M478.2,454.6l-6.6,2.7c-0.9,0.4-1.9,0.6-2.9,0.6c-1.6,0-3.3-0.2-3.9-1.3c-0.7-1.4-0.2-3.1,1.1-4
		C469.2,449.9,478.2,454.6,478.2,454.6z"/>
	<path class="st19" d="M472.7,454.2l-3.1,1.1c-0.4,0.2-0.9,0.2-1.4,0.2c-0.7,0.1-1.4-0.1-1.9-0.6c-0.3-0.5-0.2-1.2,0.3-1.6
		c0.1,0,0.1-0.1,0.2-0.1C468.4,452.1,472.7,454.2,472.7,454.2z"/>
	<path class="st20" d="M469.7,453.9l-1.4,0.6c-0.2,0.1-0.4,0.1-0.6,0.1c-0.3,0.1-0.6,0-0.8-0.2c-0.2-0.2-0.1-0.6,0.1-0.7
		c0,0,0,0,0,0C467.8,453.1,469.7,453.9,469.7,453.9z"/>
	<path class="st15" d="M581,540.1l-0.8,28.5c-0.3,3-0.2,6,0.4,8.9c1,4.7,2.7,9.8,5.9,10.9s6.7,0.5,9.1-5
		C600.2,572.4,581,540.1,581,540.1z"/>
	<path class="st16" d="M586.2,561.4l0.5,12.5c-0.1,1.4,0,2.8,0.3,4.2c0.5,2.3,1.3,4.7,2.7,5.3c1.4,0.6,2.9,0.4,3.8-2.3
		C595.4,576,586.2,561.4,586.2,561.4z"/>
	<path class="st21" d="M588.9,569.5l0.2,5.4c0,0.6,0,1.2,0.1,1.8c0.1,0.9,0.5,1.7,1.1,2.3c0.6,0.2,1.2,0.2,1.6-1
		C592.8,575.8,588.9,569.5,588.9,569.5z"/>
	<path class="st15" d="M545.2,539.8l1.3,28.5c0.4,3,0.3,6-0.3,8.9c-0.9,4.7-2.6,9.8-5.8,11s-6.7,0.6-9.1-4.9
		C526.6,572.4,545.2,539.8,545.2,539.8z"/>
	<path class="st16" d="M540.4,561.1l-0.3,12.5c0.1,1.4,0,2.9-0.3,4.2c-0.5,2.3-1.3,4.7-2.6,5.3c-1.4,0.6-2.9,0.4-3.8-2.2
		C531.5,575.8,540.4,561.1,540.4,561.1z"/>
	<path class="st21" d="M537.8,569.2l-0.1,5.4c0,0.6,0,1.2-0.1,1.8c-0.1,0.9-0.5,1.7-1.1,2.3c-0.6,0.2-1.2,0.2-1.6-0.9
		C534,575.6,537.8,569.2,537.8,569.2z"/>
	<path class="st1" d="M782.3,368.4c4.8,2.9,9.5,5.3,14.1,7.6c3.9-0.8,7.9-1.8,11.8-2.7c-5.5-2.1-10.9-4.5-16.1-7.2
		C788.8,366.8,785.6,367.6,782.3,368.4z"/>
	<path class="st22" d="M835.8,113.9c0.4-0.8,0.2-1.8-0.6-2.3c-0.3-0.2-0.6-0.2-0.9-0.2c-14.4,0.6-24.8,6.3-30.7,20.3
		C781.4,177,826.8,129.7,835.8,113.9z"/>
	<path class="st1" d="M927.6,304.5c7.4,1.6,14.9,2.7,22.5,3.4c2.5-1.9,5-3.8,7.6-5.9c-7.5-0.6-15-1.7-22.3-3.4
		C932.7,300.7,930.2,302.6,927.6,304.5z"/>
	<path class="st1" d="M887.1,291.9c13.1,5.4,26.6,9.6,40.5,12.7c2.6-1.9,5.1-3.8,7.8-5.9c-13.7-3.2-27-7.6-39.8-13.4
		C892.8,287.5,890,289.7,887.1,291.9z"/>
	<path class="st1" d="M981.7,173.5c-1.2,2.4-2.3,4.7-3.6,7.2c17.5,1,35,0.1,52.3-2.7c1.5-3.2,2.8-6.3,4.1-9.5
		C1016.3,172.9,997.8,173.9,981.7,173.5z"/>
	<path class="st1" d="M1003.3,226.4c8.8-0.3,17.5-1.3,26.1-3.1l5.7-9.1c-8.7,2.2-17.6,3.5-26.5,4
		C1006.9,220.9,1005.2,223.6,1003.3,226.4z"/>
	<path class="st1" d="M958.6,214.5c-1.8,2.7-3.7,5.7-5.7,8.4c20.4,3.1,36.7,4,50.4,3.4c1.9-2.7,3.7-5.5,5.4-8.4
		C992,218.8,975.2,217.7,958.6,214.5z"/>
	<path class="st1" d="M922.4,260.5c14.4,4.9,29.3,8.4,44.4,10.4c3-3.1,6.1-6.3,9.1-9.5c-15.5-1.5-30.8-4.6-45.6-9.4
		C927.6,254.8,925,257.7,922.4,260.5z"/>
	<path class="st1" d="M975.7,261.4c-3,3.2-5.9,6.4-9.1,9.5c7.9,1,15.9,1.4,23.9,1.3c3.3-3.4,6.5-6.8,9.6-10.5
		C992,262.2,983.9,262.1,975.7,261.4z"/>
	<path class="st1" d="M755,347.2c8.2,8.2,17.4,15.3,27.4,21.2c3.2-0.8,6.5-1.5,9.9-2.4c-10.8-5.7-21-12.4-30.5-20
		C759.5,346.4,757.2,346.9,755,347.2z"/>
	<path class="st1" d="M881.8,332.7c6.6,2.5,12.7,4.5,18.6,6.2c3.8-1.9,7.5-4,11.4-6.1c-7-1.2-14-2.8-20.8-4.8
		C887.9,329.6,884.9,331.2,881.8,332.7z"/>
	<path class="st1" d="M836,352.7c5.9,2.8,11.5,4.9,16.9,6.9c2.7-0.9,5.2-2,7.9-2.9c-5.9-1.9-11.7-4.2-17.3-6.8
		C841.1,350.8,838.6,351.7,836,352.7z"/>
	<path class="st1" d="M805.5,334.6c9.6,6.9,19.8,12.9,30.5,18c2.5-0.9,5.1-1.8,7.4-2.7c-10.6-5-20.7-11-30.1-17.9
		C810.8,332.9,808.2,333.9,805.5,334.6z"/>
	<path class="st1" d="M848.9,316.2c10.5,6.5,21.5,12,32.9,16.5c3.1-1.5,6-3.1,9.1-4.9c-12.4-3.9-24.3-9-35.7-15.2
		C853.1,313.9,851,315,848.9,316.2z"/>
	<path class="st14" d="M707.6,353.6l4.9-0.6c8.9,8.8,19,16.4,29.9,22.6c11.9-1.6,25.3-3.9,39.6-7.2c-10-5.9-19.1-13.1-27.4-21.2
		c2.3-0.3,4.5-0.8,6.8-1.1c9.5,7.7,19.7,14.4,30.4,20c14.9-3.7,29.6-8.2,44-13.4c-10.7-5.1-20.9-11.1-30.6-18.1
		c2.7-0.9,5.3-1.8,7.9-2.8c9.4,7,19.5,13,30.1,17.9c13-5.1,25.8-10.8,38.2-17.2c-11.4-4.6-22.5-10.1-32.9-16.5
		c2.1-1.1,4.2-2.3,6.3-3.4c11.4,6.2,23.4,11.3,35.7,15.2c12.7-7,25-14.8,36.6-23.4c-13.8-3.1-27.4-7.3-40.5-12.7
		c2.9-2.2,5.7-4.4,8.5-6.6c12.8,5.8,26.1,10.3,39.8,13.4c11.1-8.6,21.5-17.8,31.4-27.8c-15.1-2.1-29.9-5.5-44.3-10.4
		c2.6-2.8,5.2-5.7,7.7-8.4c14.8,4.7,30.1,7.8,45.6,9.4c10-11,19.3-22.7,27.5-35c-13.7,0.5-29.9-0.3-50.4-3.4
		c1.9-2.7,3.8-5.7,5.7-8.4c16.5,3.1,33.3,4.2,50.1,3.4c8.1-12.8,15.4-26.2,21.7-40c-14.1,2.5-31.1,3.7-52.3,2.7
		c1.2-2.4,2.4-4.9,3.6-7.2c16,0.4,34.6-0.6,52.9-5.1c6.6-15.8,12.2-32,16.6-48.5c-13.9,5.3-30.8,9.8-52.5,12.8
		c0.8-2.3,1.6-4.5,2.4-6.7c17.3-4.2,36.1-10.3,53.8-19.7c3.8-16.7,6.8-33.7,8.8-50.7c-12.8,8.1-28.8,16.1-50.3,23.2
		c0.7-4,1-6.1,1-6.1c-17.9,5-46.5,17-160.2,29.5c-25.5,3-47.1,20.5-55.2,44.9c-49.2,145.3-161.1,116.9-161.1,116.9l1.5,24.6h-0.4
		c0,0,0.2,0.7,0.5,2l3.7,63.6c11.4,1.1,21.6,1.5,30.9,1.6c7.5,8.9,16.2,16.8,25.7,23.5c7.5-0.2,19.1-0.8,33.7-2.5
		C724,369.7,715.4,362,707.6,353.6z"/>
	<path class="st2" d="M1104.3,152.6c-16.4,5.3-30.1,12.6-47.1,18.3c-6.4,14.8-13.8,29.2-22.1,43
		C1063.7,206.8,1090.1,189.3,1104.3,152.6z"/>
	<path class="st23" d="M829.6,393.7c-10.4-7.2-21.4-11.9-33.4-17.7c-13.9,3.1-26.9,5.3-38.5,6.8
		C777.5,390.8,801.2,395.4,829.6,393.7z"/>
	<path class="st5" d="M1084.4,206.5c-19.7,4.9-34.4,12.4-55.1,16.7c-8.8,13.5-18.6,26.4-29.3,38.5
		C1032.5,259.7,1065.1,245.9,1084.4,206.5z"/>
	<path class="st8" d="M1013.8,306.9c-21.3-0.6-39.8,2.9-63.9,0.9c-12.2,9.1-25,17.4-38.3,24.8C942.6,337.9,978.5,333.6,1013.8,306.9
		z"/>
	<path class="st5" d="M1047.3,267.6c-19.3,0.5-35.9,4.2-56.9,4.5c-10.3,10.7-21.3,20.6-32.9,29.8
		C987.9,304.1,1020.3,296.5,1047.3,267.6z"/>
	<path class="st2" d="M1118.5,11.7c-10.1,7.5-18.7,15.4-28.1,23.4c-1.6,17.9-4.2,35-7.3,51.1C1102.5,68.6,1116.5,44.6,1118.5,11.7z"
		/>
	<path class="st2" d="M1120.1,81.4c-14.7,7.8-26.8,16.9-41.6,25.4c-4.2,17.7-9.7,35-16.3,51.9
		C1089.2,145.7,1112.1,122.3,1120.1,81.4z"/>
	<path class="st24" d="M901.7,374.3c-16.3-5.9-31.6-8.6-48.7-14.7c-14.7,5.4-29.7,9.9-44.8,13.6
		C834.3,383.2,865.9,386.3,901.7,374.3z"/>
	<path class="st25" d="M711.7,386.5c16.9,9.1,35.8,14.2,55,15c-7.2-6.1-14.7-11.8-22.6-17.1C729.6,385.9,718.5,386.3,711.7,386.5z"
		/>
	<path class="st24" d="M956,349.7c-18.6-4.6-35.6-5.6-55.7-11c-12.8,6.7-26,12.6-39.5,17.8C888,365,920.3,366.1,956,349.7z"/>
	<path class="st26" d="M1034.5,168.5c9.6-2.3,19-5.6,27.9-9.9c6.5-16.9,12-34.3,16.3-51.9c-8.8,5.1-18,9.4-27.6,12.9
		C1046.6,136.2,1041,152.5,1034.5,168.5z"/>
	<path class="st27" d="M1083.2,86.1c3.1-16.1,5.6-33.1,7.2-51c-8.6,7.4-17.6,14.1-27.1,20.2c-1.9,17.2-4.9,34.3-8.8,51.1
		C1064.8,100.7,1074.5,93.9,1083.2,86.1z"/>
	<path class="st28" d="M935.1,298.7c7.4,1.7,14.9,2.7,22.4,3.2c11.6-9.2,22.6-19.2,32.9-29.8c-7.9,0-15.8-0.5-23.7-1.5
		C956.9,280.7,946.3,290,935.1,298.7z"/>
	<path class="st26" d="M1008.6,218.1c9-0.5,17.9-1.9,26.6-4.2c8.3-13.8,15.7-28.2,22-43c-8.8,3-17.8,5.2-27,6.8
		C1024.1,191.7,1016.8,205.2,1008.6,218.1z"/>
	<path class="st28" d="M975.5,261.5c8.2,0.7,16.4,0.8,24.6,0.2c10.7-12.1,20.5-25,29.3-38.5c-8.6,1.7-17.4,2.7-26.1,2.9
		C994.8,238.5,985.5,250.3,975.5,261.5z"/>
	<path class="st28" d="M843.5,349.9c5.7,2.6,11.6,4.8,17.6,6.6c13.5-5.2,26.6-11.2,39.4-17.8c-6.2-1.7-12.3-3.8-18.3-6.2
		C869.5,339,856.6,344.8,843.5,349.9z"/>
	<path class="st28" d="M890.8,328c6.8,2.1,13.8,3.7,20.9,4.7c13.3-7.5,26.1-15.8,38.3-24.9c-7.5-0.6-14.9-1.8-22.3-3.5
		C915.9,313,903.6,320.9,890.8,328z"/>
	<path class="st29" d="M792,366.2c5.3,2.7,10.7,5.1,16.2,7.1c15.2-3.8,30.1-8.3,44.8-13.7c-5.7-2-11.2-4.3-16.6-6.9
		C821.2,358.2,805.9,362.7,792,366.2z"/>
	<path class="st30" d="M699.5,379.2c3.8,2.6,8.2,5.1,12.4,7.4c6.8-0.2,17.9-0.6,32.3-2.2c-3.5-2.5-6.7-5-10.5-7.7
		C719.3,378.3,707,378.9,699.5,379.2z"/>
	<path class="st29" d="M742.5,375.7c5,2.7,10.2,5.1,15.5,7.2c11.6-1.6,24.5-3.8,38.5-6.8c-4.5-2.3-8.9-4.7-13.8-7.6
		C768.3,371.6,754.4,374.1,742.5,375.7z"/>
	<path class="st31" d="M918.7,102c0,0,58.7-44.8,101.3-47.9c-20.3,45.2-81.5,111.6-129.4,104.5c5-4.5,9.6-9.5,13.6-14.8
		C911.6,133.9,916,116.9,918.7,102z"/>
	<path class="st31" d="M894.8,177.7c0,0,54.5-30.2,93.5-23.4c-28.5,35.9-89.5,86.9-131.1,69.6c5.5-3.3,10.6-7.2,15.1-11.7
		C880.6,204.3,888.9,190.5,894.8,177.7z"/>
	<path class="st31" d="M854.5,238.5c0,0,59.8-17.6,96.3-2.5c-35.6,28.9-104.9,63.5-141.7,37.6c0,0,6.1-1.3,15.3-7.1
		C834,260.7,846,249.8,854.5,238.5z"/>
	<path class="st31" d="M803.5,290.9c0,0,58.9-1.1,88.6,21.8c-39.8,17.5-111.7,31.8-138.9-1.1c0,0,5.8,0.3,15.7-2.5
		C779.4,306,792.9,299,803.5,290.9z"/>
	<path class="st31" d="M734.7,322.4c0,0,44.6,14.7,60.9,39.8c-34.5,2.6-92.3-5.4-104.1-37.3c0,0,4.3,1.7,12.5,2.2
		C712.6,327.4,724.8,325.6,734.7,322.4z"/>
	<path class="st15" d="M909.6,117.5c0,0,29.4-22.5,50.8-24c-10.2,22.7-40.9,56-64.9,52.4c2.5-2.2,4.8-4.7,6.9-7.4
		C906.1,133.5,908.3,125.1,909.6,117.5z"/>
	<path class="st15" d="M885.9,189.2c0,0,27.5-15.3,47.3-11.9c-14.4,18.2-45.3,44-66.4,35.2c2.8-1.6,5.3-3.6,7.6-5.9
		C878.8,202.5,883,195.6,885.9,189.2z"/>
	<path class="st15" d="M842.3,248.9c0,0,31.5-9.4,50.8-1.2c-18.9,15.2-55.4,33.5-74.7,19.7c2.8-0.8,5.5-2.1,8-3.8
		C832.6,259.7,838,254.7,842.3,248.9z"/>
	<path class="st15" d="M791.7,297.3c0,0,29.3-0.6,44.1,10.9c-19.9,8.8-55.7,15.8-69.2-0.5c2.6-0.1,5.2-0.5,7.8-1.3
		C780.6,304.3,786.5,301.2,791.7,297.3z"/>
	<path class="st15" d="M723.5,323.8c0,0,22.9,7.5,31.2,20.3c-17.7,1.3-47.3-2.8-53.2-19.1c2.1,0.7,4.2,1.1,6.4,1.1
		C713.1,326.3,718.4,325.5,723.5,323.8z"/>
	<path class="st32" d="M835.9,110.7c-20.8,15.7-23.6,50.6-23.6,50.6s29.6,14.9,66.7,4c36.8-11.1,40.2-76.5,40.2-76.5
		S856.7,95,835.9,110.7z M872,157.3c-15.9,4.3-32.8,3.2-48-3.3c0,0,2.1-24.1,17.2-34.7s60.1-14.4,60.1-14.4S898.7,150,872,157.3
		L872,157.3z"/>
	<path class="st32" d="M813.4,165.7c-24.6,8.6-37.9,41-37.9,41s23.7,23.2,62.3,24.1c38.4,0.7,61.6-60.6,61.6-60.6
		S838,157.1,813.4,165.7z M833.7,221c-16.5-0.7-32.2-7-44.7-17.8c0,0,9.3-22.4,26.9-27.8c17.6-5.4,61.6,4.5,61.6,4.5
		S861.3,222.3,833.7,221z"/>
	<path class="st32" d="M783.5,213.3c-23.6,1.9-42.8,27.4-42.8,27.4s15.6,25.9,49.3,35.5s68.2-39.1,68.2-39.1
		S807.1,211.4,783.5,213.3z M788.6,266.6c-14.3-4.5-26.8-13.6-35.3-26c0,0,13.4-17.5,30.1-18.2c16.7-0.7,53.2,18.3,53.2,18.3
		S812.7,274.1,788.6,266.6z"/>
	<path class="st32" d="M745.3,247c-23.5-2.9-47.4,18-47.4,18s9.8,28.5,40.9,44.8s74.7-24.3,74.7-24.3S768.8,250,745.3,247z
		 M739.4,300.3c-13.1-7.3-23.4-18.8-29.2-32.7c0,0,16.6-14.3,33.3-11.7s48.2,28.7,48.2,28.7S761.3,312.4,739.4,300.3z"/>
	<path class="st32" d="M703.6,270.5c-18-9.2-43.1,0.9-43.1,0.9c0.9,17.7,8,34.5,20,47.5c20.2,21.8,66.7,1.9,66.7,1.9
		S721.5,279.5,703.6,270.5z M683.7,311.4c-8.4-9.6-13.3-21.6-14.1-34.3c0,0,17.4-6.7,29.9,0c12.5,6.7,30.5,36.7,30.5,36.7
		S697.9,327.3,683.7,311.4L683.7,311.4z"/>
	<path class="st7" d="M659.2,284.7c65.2,0.9,131.5-79.7,131.5-79.7s61.5-78.6,68-107.9c-30.5,3.9-51.3,17.4-59.4,47.8
		C754,274.1,658.6,265.9,658.6,265.9L659.2,284.7z"/>
	<path class="st33" d="M850.9,98c0.3-0.3-52.8-1.3-75.7,69.9c-3.2,10.1-6.8,20-11.9,29.2c-9.6,17.4-21.4,37.7-21.4,37.7
		S791.2,207.9,850.9,98z"/>
	<path class="st22" d="M294.6,114.8c-0.4-0.8-0.2-1.8,0.6-2.3c0.3-0.2,0.6-0.2,0.9-0.2c14.4,0.6,24.8,6.3,30.7,20.3
		C349,177.9,303.6,130.6,294.6,114.8z"/>
	<path class="st1" d="M202.8,305.4c-7.4,1.6-14.9,2.7-22.5,3.4c-2.5-1.9-5-3.8-7.6-5.9c7.5-0.6,15-1.7,22.3-3.4
		C197.6,301.6,200.1,303.5,202.8,305.4z"/>
	<path class="st1" d="M243.2,292.8c-13.1,5.4-26.6,9.6-40.5,12.7c-2.6-1.9-5.1-3.8-7.8-5.9c13.7-3.2,27-7.6,39.8-13.4
		C237.5,288.4,240.3,290.6,243.2,292.8z"/>
	<path class="st1" d="M148.6,174.5c1.2,2.4,2.3,4.7,3.6,7.2c-17.5,1-35,0.1-52.3-2.7c-1.5-3.2-2.8-6.3-4.1-9.5
		C114,173.8,132.6,174.8,148.6,174.5z"/>
	<path class="st1" d="M127.1,227.3c-8.8-0.3-17.5-1.3-26.1-3.1l-5.7-9.1c8.7,2.2,17.6,3.5,26.5,4
		C123.4,221.8,125.2,224.5,127.1,227.3z"/>
	<path class="st1" d="M171.7,215.4c1.8,2.7,3.7,5.7,5.7,8.4c-20.4,3.1-36.7,4-50.4,3.4c-1.9-2.7-3.7-5.5-5.4-8.4
		C138.4,219.7,155.2,218.5,171.7,215.4z"/>
	<path class="st1" d="M207.9,261.3c-14.4,4.9-29.3,8.4-44.4,10.4c-3-3.1-6.1-6.3-9.1-9.5c15.5-1.5,30.8-4.6,45.6-9.4
		C202.7,255.7,205.3,258.5,207.9,261.3z"/>
	<path class="st1" d="M154.6,262.3c3,3.2,5.9,6.4,9.1,9.5c-7.9,1-15.9,1.4-23.9,1.3c-3.3-3.4-6.5-6.8-9.6-10.5
		C138.3,263.1,146.5,263,154.6,262.3z"/>
	<path class="st1" d="M375.4,348.1c-8.2,8.2-17.4,15.3-27.4,21.2c-3.2-0.8-6.5-1.5-9.9-2.4c10.8-5.7,21-12.4,30.4-20
		C370.9,347.2,373.1,347.7,375.4,348.1z"/>
	<path class="st1" d="M248.5,333.6c-6.6,2.5-12.7,4.5-18.6,6.2c-3.8-1.9-7.5-4-11.4-6.1c7-1.2,14-2.8,20.8-4.8
		C242.5,330.5,245.4,332.1,248.5,333.6z"/>
	<path class="st1" d="M294.3,353.5c-5.9,2.8-11.5,4.9-16.9,6.9c-2.7-0.9-5.2-2-7.9-2.9c5.9-1.9,11.7-4.2,17.3-6.8
		C289.2,351.7,291.8,352.6,294.3,353.5z"/>
	<path class="st1" d="M324.8,335.5c-9.6,6.9-19.8,12.9-30.5,18c-2.5-0.9-5.1-1.8-7.4-2.7c10.6-5,20.7-11,30.1-17.9
		C319.5,333.8,322.2,334.7,324.8,335.5z"/>
	<path class="st1" d="M281.4,317c-10.5,6.5-21.5,12-32.9,16.5c-3.1-1.5-6-3.1-9.1-4.9c12.4-3.9,24.3-9,35.7-15.2
		C277.2,314.8,279.3,315.9,281.4,317z"/>
	<path class="st14" d="M422.7,354.5l-4.9-0.6c-8.9,8.8-19,16.4-29.9,22.6c-11.9-1.6-25.3-3.9-39.6-7.2c10-5.9,19.1-13.1,27.4-21.2
		c-2.3-0.3-4.5-0.8-6.8-1.1c-9.5,7.7-19.7,14.4-30.4,20c-14.9-3.7-29.6-8.2-44-13.4c10.7-5.1,20.9-11.1,30.5-18
		c-2.7-0.9-5.3-1.8-7.9-2.8c-9.4,7-19.5,13-30.1,17.9c-13-5.1-25.8-10.8-38.2-17.2c11.4-4.6,22.5-10.1,32.9-16.5
		c-2.1-1.1-4.2-2.3-6.3-3.4c-11.4,6.2-23.4,11.3-35.7,15.1c-12.7-7-25-14.8-36.6-23.4c13.8-3.1,27.4-7.3,40.5-12.7
		c-2.9-2.2-5.7-4.4-8.5-6.6c-12.8,5.8-26.1,10.3-39.8,13.4c-11.1-8.5-21.6-17.8-31.4-27.8c15.1-2.1,29.9-5.5,44.4-10.4
		c-2.6-2.8-5.2-5.7-7.7-8.4c-14.8,4.7-30.1,7.8-45.6,9.4c-10-11-19.3-22.7-27.5-35c13.7,0.5,29.9-0.3,50.4-3.4
		c-1.9-2.7-3.8-5.7-5.7-8.4c-16.5,3.1-33.3,4.2-50.1,3.4c-8.1-12.8-15.3-26.2-21.6-40c14.1,2.5,31.1,3.7,52.3,2.7
		c-1.2-2.4-2.4-4.9-3.6-7.2c-16,0.4-34.6-0.6-52.9-5.1c-6.7-15.8-12.2-31.9-16.6-48.5c13.9,5.3,30.8,9.8,52.5,12.8
		c-0.8-2.3-1.6-4.5-2.4-6.7c-17.3-4.2-36.1-10.3-53.8-19.7c-3.8-16.7-6.8-33.7-8.9-50.7c12.8,8.1,28.8,16.1,50.3,23.2
		c-0.7-4-1-6.1-1-6.1c17.9,5,46.5,17,160.2,29.5c25.6,3,47.1,20.5,55.2,44.9c49.2,145.3,161.1,116.9,161.1,116.9l-1.5,24.6h0.4
		c0,0-0.2,0.7-0.5,2l-3.7,63.5c-11.4,1.1-21.6,1.5-30.9,1.6c-7.5,8.9-16.2,16.8-25.7,23.5c-7.5-0.2-19.1-0.8-33.7-2.5
		C406.3,370.6,414.9,362.9,422.7,354.5z"/>
	<path class="st2" d="M26,153.5c16.4,5.3,30.1,12.6,47.1,18.3c6.4,14.8,13.8,29.2,22.2,43C66.7,207.6,40.2,190.2,26,153.5z"/>
	<path class="st23" d="M300.7,394.5c10.4-7.2,21.4-11.9,33.4-17.7c13.9,3.1,26.9,5.3,38.5,6.8C352.8,391.7,329.1,396.3,300.7,394.5z
		"/>
	<path class="st5" d="M46,207.4c19.7,4.9,34.4,12.4,55.1,16.7c8.8,13.5,18.6,26.4,29.3,38.5C97.8,260.5,65.2,246.7,46,207.4z"/>
	<path class="st8" d="M116.5,307.8c21.3-0.6,39.8,2.9,63.9,0.9c12.2,9.1,25,17.4,38.3,24.9C187.7,338.7,151.8,334.5,116.5,307.8z"/>
	<path class="st5" d="M83,268.5c19.3,0.5,35.9,4.2,56.9,4.5c10.3,10.7,21.3,20.6,32.9,29.8C142.4,304.9,110,297.4,83,268.5z"/>
	<path class="st2" d="M11.8,12.5C22,20,30.5,27.9,40,36c1.6,17.9,4.2,35,7.3,51.1C27.8,69.5,13.8,45.5,11.8,12.5z"/>
	<path class="st2" d="M10.3,82.3C25,90,37,99.1,51.8,107.6c4.2,17.7,9.7,35,16.3,51.9C41.1,146.6,18.2,123.2,10.3,82.3z"/>
	<path class="st24" d="M228.6,375.1c16.3-5.9,31.6-8.6,48.7-14.7c14.7,5.4,29.7,9.9,44.8,13.6C296,384.1,264.5,387.2,228.6,375.1z"
		/>
	<path class="st25" d="M418.7,387.4c-16.9,9.1-35.7,14.2-55,15c7.2-6.1,14.7-11.8,22.6-17.1C400.7,386.8,411.9,387.2,418.7,387.4z"
		/>
	<path class="st24" d="M174.3,350.5c18.6-4.6,35.6-5.6,55.7-11c12.8,6.6,26,12.6,39.5,17.8C242.4,365.9,210,367,174.3,350.5z"/>
	<path class="st26" d="M95.9,169.3c-9.6-2.3-19-5.6-27.9-9.9c-6.5-16.9-12-34.3-16.3-51.9c8.8,5.1,18,9.4,27.6,12.9
		C83.8,137.1,89.3,153.4,95.9,169.3z"/>
	<path class="st27" d="M47.1,87c-3.1-16.2-5.6-33.2-7.2-51.1C48.4,43.3,57.5,50,67,56.1c1.9,17.2,4.9,34.3,8.8,51.1
		C65.5,101.6,55.9,94.8,47.1,87z"/>
	<path class="st28" d="M195.2,299.6c-7.4,1.7-14.9,2.8-22.5,3.3c-11.6-9.2-22.6-19.2-32.9-29.8c7.9,0,15.8-0.5,23.7-1.5
		C173.5,281.6,184.1,290.9,195.2,299.6z"/>
	<path class="st26" d="M121.8,218.9c-9-0.5-17.9-1.9-26.6-4.2c-8.3-13.8-15.7-28.2-22-43c8.8,3,17.8,5.2,27,6.8
		C106.3,192.6,113.5,206,121.8,218.9z"/>
	<path class="st28" d="M154.9,262.3c-8.2,0.7-16.4,0.8-24.6,0.2c-10.7-12.1-20.5-25-29.3-38.5c8.6,1.7,17.4,2.7,26.1,2.9
		C135.5,239.4,144.8,251.2,154.9,262.3z"/>
	<path class="st28" d="M286.9,350.8c-5.7,2.6-11.6,4.8-17.6,6.6c-13.5-5.2-26.6-11.2-39.4-17.8c6.2-1.7,12.3-3.8,18.3-6.2
		C260.8,339.9,273.7,345.7,286.9,350.8z"/>
	<path class="st28" d="M239.6,328.8c-6.8,2.1-13.8,3.7-20.9,4.7c-13.3-7.5-26.1-15.8-38.3-24.9c7.5-0.6,14.9-1.8,22.3-3.5
		C214.4,313.9,226.7,321.8,239.6,328.8z"/>
	<path class="st29" d="M338.4,367.1c-5.3,2.7-10.7,5.1-16.2,7.1c-15.2-3.8-30.1-8.3-44.8-13.7c5.7-2,11.2-4.3,16.6-6.9
		C309.2,359.1,324.4,363.6,338.4,367.1z"/>
	<path class="st30" d="M430.8,380.1c-3.8,2.6-8.2,5.1-12.4,7.4c-6.8-0.2-17.9-0.6-32.3-2.2c3.5-2.5,6.7-5,10.5-7.7
		C411.1,379.2,423.3,379.9,430.8,380.1z"/>
	<path class="st29" d="M387.8,376.6c-5,2.7-10.2,5.1-15.5,7.2c-11.6-1.6-24.5-3.8-38.5-6.8c4.5-2.3,8.9-4.7,13.8-7.6
		C362.1,372.5,376,375,387.8,376.6z"/>
	<path class="st31" d="M211.6,102.8c0,0-58.7-44.8-101.3-47.9c20.3,45.2,81.5,111.6,129.4,104.5c-5-4.5-9.6-9.5-13.6-14.8
		C218.7,134.8,214.4,117.8,211.6,102.8z"/>
	<path class="st31" d="M235.5,178.6c0,0-54.5-30.3-93.5-23.4c28.5,35.9,89.5,86.9,131.1,69.6c-5.5-3.3-10.6-7.2-15.1-11.7
		C249.7,205.2,241.4,191.4,235.5,178.6z"/>
	<path class="st31" d="M275.8,239.4c0,0-59.8-17.6-96.3-2.5c35.6,28.9,104.9,63.5,141.7,37.6c0,0-6.1-1.3-15.3-7.1
		C296.3,261.6,284.3,250.7,275.8,239.4z"/>
	<path class="st31" d="M326.9,291.8c0,0-58.9-1.1-88.6,21.8c39.8,17.5,111.7,31.8,138.9-1.1c0,0-5.8,0.3-15.7-2.5
		C351,306.9,337.4,299.9,326.9,291.8z"/>
	<path class="st31" d="M395.6,323.3c0,0-44.6,14.7-60.9,39.8c34.5,2.6,92.3-5.4,104.1-37.3c0,0-4.3,1.7-12.5,2.2
		C417.7,328.2,405.6,326.5,395.6,323.3z"/>
	<path class="st15" d="M220.7,118.4c0,0-29.4-22.5-50.8-24c10.2,22.7,40.9,56,64.9,52.4c-2.5-2.2-4.8-4.7-6.9-7.4
		C224.2,134.4,222.1,125.9,220.7,118.4z"/>
	<path class="st15" d="M244.4,190c0,0-27.5-15.3-47.3-11.9c14.4,18.2,45.3,44,66.4,35.2c-2.8-1.6-5.3-3.6-7.6-5.9
		C251.6,203.4,247.4,196.5,244.4,190z"/>
	<path class="st15" d="M288,249.8c0,0-31.4-9.4-50.9-1.2c18.9,15.2,55.4,33.5,74.7,19.7c-2.8-0.8-5.5-2.1-8-3.8
		C297.8,260.6,292.4,255.6,288,249.8z"/>
	<path class="st15" d="M338.6,298.2c0,0-29.3-0.6-44.1,10.9c19.9,8.8,55.7,15.8,69.2-0.5c-2.6-0.1-5.2-0.5-7.8-1.3
		C349.7,305.1,343.8,302.1,338.6,298.2z"/>
	<path class="st15" d="M406.9,324.7c0,0-22.9,7.5-31.2,20.3c17.7,1.3,47.3-2.8,53.2-19.1c-2.1,0.7-4.2,1.1-6.4,1.1
		C417.3,327.1,412,326.4,406.9,324.7z"/>
	<path class="st32" d="M211.2,89.7c0,0,3.4,65.4,40.2,76.5c37,10.8,66.7-4,66.7-4s-2.8-34.9-23.6-50.6S211.2,89.7,211.2,89.7z
		 M229.1,105.7c0,0,45.1,3.7,60.1,14.4c15,10.7,17.2,34.7,17.2,34.7c-15.2,6.5-32.1,7.7-48,3.3C231.6,150.9,229.1,105.7,229.1,105.7
		L229.1,105.7z"/>
	<path class="st32" d="M230.9,171.1c0,0,23.2,61.3,61.6,60.6c38.6-0.9,62.3-24.1,62.3-24.1s-13.3-32.4-37.9-41
		C292.4,158,230.9,171.1,230.9,171.1z M252.9,180.9c0,0,44.1-10.1,61.6-4.5c17.6,5.6,26.9,27.8,26.9,27.8
		c-12.5,10.8-28.2,17.1-44.7,17.8C269.1,223.2,252.9,180.9,252.9,180.9L252.9,180.9z"/>
	<path class="st32" d="M272.1,238c0,0,34.5,48.7,68.2,39.1s49.3-35.5,49.3-35.5s-19.2-25.5-42.8-27.4
		C323.2,212.3,272.1,238,272.1,238z M293.6,241.5c0,0,36.5-19.1,53.2-18.2c16.7,0.9,30.1,18.2,30.1,18.2
		c-8.5,12.4-20.9,21.5-35.3,26C317.7,274.9,293.6,241.5,293.6,241.5L293.6,241.5z"/>
	<path class="st32" d="M316.8,286.4c0,0,43.7,40.6,74.7,24.3s40.9-44.8,40.9-44.8s-23.9-21-47.4-18
		C361.6,250.8,316.8,286.4,316.8,286.4z M338.6,285.6c0,0,31.8-26.1,48.3-28.7c16.5-2.6,33.3,11.7,33.3,11.7
		c-5.8,13.8-16.1,25.3-29.2,32.7C369.1,313.3,338.7,285.6,338.6,285.6L338.6,285.6z"/>
	<path class="st32" d="M383.2,321.6c0,0,46.5,20,66.7-1.9c12-13,19.1-29.8,20-47.5c0,0-25.1-10-43.1-0.9
		C408.8,280.5,383.2,321.6,383.2,321.6z M400.4,314.7c0,0,18-29.8,30.5-36.7c12.5-6.9,29.9,0,29.9,0c-0.8,12.7-5.7,24.8-14.1,34.3
		C432.5,328.2,400.4,314.7,400.4,314.7z"/>
	<path class="st7" d="M471.2,285.6c-65.2,0.9-131.5-79.7-131.5-79.7s-61.5-78.6-68-107.9c30.5,3.9,51.3,17.4,59.4,47.8
		C376.4,275,471.7,266.8,471.7,266.8L471.2,285.6z"/>
	<path class="st33" d="M279.4,98.8c-0.3-0.3,52.8-1.3,75.7,69.9c3.2,10.1,6.8,20,11.9,29.2c9.6,17.4,21.4,37.7,21.4,37.7
		S339.1,208.8,279.4,98.8z"/>
	<path class="st34" d="M834.6,111.5c1.3-1.2-0.3-2.5-2.5-2.3c-11.4,1.4-25.4,9.6-32.4,22.8C791.8,147,824.1,121.4,834.6,111.5z"/>
	<path class="st35" d="M830.4,112.9c0.6-0.4,0.1-1-0.8-1.1c-5.6-0.2-10.9,2.3-14.5,6.6C810.9,123.8,825.5,116.1,830.4,112.9z"/>
	<path class="st34" d="M297.3,111.2c-1.3-1.3,0.4-2.5,2.6-2.2c11.4,1.6,25.2,10.1,31.9,23.4C339.4,147.5,307.6,121.3,297.3,111.2z"
		/>
	<path class="st35" d="M301.5,112.7c-0.6-0.4,0-1,0.9-1.1c5.6,0,10.9,2.5,14.3,6.9C320.8,123.9,306.3,115.9,301.5,112.7z"/>
	<path class="st1" d="M714.6,363.6l-5.4,0.5c8.3,9.5,17.5,18.3,27.5,26.1c3.3-0.3,6.7-0.6,10.2-0.9
		C735,382.2,724.1,373.5,714.6,363.6z"/>
	<path class="st1" d="M733.4,376.7c3.6,2.7,7.2,5.3,10.8,7.8c4.4-0.4,8.9-1,13.7-1.6c-5.2-2.1-10.3-4.6-15.2-7.4
		C739.4,376,736.3,376.3,733.4,376.7z"/>
	<path class="st36" d="M566.4,447.8c0,0-42.1,6.7-0.5,71.3C565.9,519,600.4,457.5,566.4,447.8z"/>
	<path class="st37" d="M566.9,449.9c0,0-35.1,5.6-0.3,59.5C566.4,509.4,595.3,458.2,566.9,449.9z"/>
	<path class="st36" d="M504.4,414.8c0,0-38.6-1.6-12.9,63.4C491.5,478,533,429.4,504.4,414.8z"/>
	<path class="st37" d="M504.4,416.7c0,0-32.3-1.2-10.9,53C493.5,469.7,528.3,429.1,504.4,416.7z"/>
	<path class="st38" d="M537,419.8c0,0-43.9,1.9-8.7,72.8C528.4,492.5,570.8,433.7,537,419.8z"/>
	<path class="st37" d="M537.2,422c0,0-36.6,1.5-7.2,60.9C529.9,482.8,565.2,433.7,537.2,422z"/>
	<path class="st36" d="M604.4,422.1c0,0-32.3,20,24.2,58.9C628.7,481,635.8,418.4,604.4,422.1z"/>
	<path class="st37" d="M605.3,423.8c0,0-27,16.6,20.2,49.1C625.7,472.9,631.6,420.7,605.3,423.8z"/>
	<path class="st39" d="M630.6,394.7c0,0-33.6,20.2,24.3,60.9C655,455.4,663,391.1,630.6,394.7z"/>
	<path class="st37" d="M631.7,396.3c0,0-28.1,17,20.4,50.9C652.1,447.2,658.7,393.4,631.7,396.3z"/>
	<path class="st38" d="M586.4,428.5c0,0-35.9,15.8,16.3,62.1C602.7,490.5,618.8,428.8,586.4,428.5z"/>
	<path class="st37" d="M587.2,430.2c0,0-30,13.2,13.6,51.9C600.8,482.1,614.3,430.5,587.2,430.2z"/>
	<path class="st40" d="M567.7,423.8c0,0-38.6,6.1,0.2,62.9C567.7,486.7,599.1,432.1,567.7,423.8z"/>
	<path class="st37" d="M568,425.6c0,0-32.3,5.1,0,52.7C568.2,478.3,594.3,432.6,568,425.6z"/>
	<path class="st39" d="M490.7,392.9c0,0-38.2-2.3-12.6,59.2C478.1,452.1,519.2,407.3,490.7,392.9z"/>
	<path class="st37" d="M490.7,394.8c0,0-32-1.9-10.6,49.4C480.2,444.2,514.4,406.9,490.7,394.8z"/>
	<path class="st39" d="M522.9,396.7c0,0-43.2-1.5-14.2,70.9C508.7,467.5,554.9,413.1,522.9,396.7z"/>
	<path class="st37" d="M522.8,399c0,0-36-1.2-11.8,59.2C510.9,458.2,549.6,412.7,522.8,399z"/>
	<path class="st39" d="M552.4,397.4c0,0-40.4,4.2-3.9,67.7C548.5,465.1,584.3,408.5,552.4,397.4z"/>
	<path class="st37" d="M552.6,399.5c0,0-33.7,3.6-3.3,56.5C549.3,456,579.3,408.8,552.6,399.5z"/>
	<path class="st39" d="M581.8,395.9c0,0-36.5,17.7,19.3,65.1C600.9,461,615.5,395.4,581.8,395.9z"/>
	<path class="st37" d="M582.7,397.7c0,0-30.4,14.8,16,54.4C598.7,452.1,610.8,397.4,582.7,397.7z"/>
	<path class="st39" d="M607.8,394.1c0,0-34.9,20.6,24.7,63.2C632.4,457.3,641.3,390.9,607.8,394.1z"/>
	<path class="st37" d="M608.9,396c0,0-29.1,17.2,20.6,52.7C629.5,448.7,636.9,393.3,608.9,396z"/>
	<path class="st39" d="M639.6,375.9c0,0-28.7,21.8,28.4,53.3C668.1,429.2,669,369.5,639.6,375.9z"/>
	<path class="st37" d="M640.8,377.5c0,0-23.9,18.3,23.8,44.4C664.6,421.9,665.3,372,640.8,377.5z"/>
	<path class="st38" d="M565.1,368.7c0,0-39.3,10.2,6.4,67.6C571.5,436.2,598.2,374.7,565.1,368.7z"/>
	<path class="st37" d="M565.8,370.7c0,0-32.8,8.5,5.3,56.4C571,427.1,593.4,375.8,565.8,370.7z"/>
	<path class="st39" d="M473.8,356.6c0,0-40.5,0.3-10.6,66.9C463.2,423.5,504.4,370.5,473.8,356.6z"/>
	<path class="st37" d="M473.8,358.6c0,0-33.9,0.2-8.8,55.9C465.1,414.7,499.4,370.4,473.8,358.6z"/>
	<path class="st39" d="M519.1,369.7c0,0-40.5,2.4-6.8,67.4C512.3,437.3,550.4,382.2,519.1,369.7z"/>
	<path class="st37" d="M519.2,371.9c0,0-33.8,2.1-5.7,56.4C513.5,428.3,545.5,382.2,519.2,371.9z"/>
	<path class="st39" d="M611.9,363.2c0,0-37.2,16.2,16.5,65.7C628.4,428.9,645.6,364.2,611.9,363.2z"/>
	<path class="st37" d="M612.7,365.1c0,0-31.1,13.5,13.8,55C626.5,420.1,640.8,365.9,612.7,365.1z"/>
	<path class="st39" d="M653,345.7c0,0-34.8,20.9,24.9,63C677.9,408.7,686.5,342.3,653,345.7z"/>
	<path class="st37" d="M654,347.5c0,0-29,17.5,20.9,52.7C674.9,400.2,682,344.7,654,347.5z"/>
	<path class="st36" d="M580.9,349.6c0,0-40.2,17.9,18.6,71.1C599.6,420.9,617.4,350.2,580.9,349.6z"/>
	<path class="st37" d="M581.9,351.8c0,0-33.5,14.9,15.7,59.5C597.4,411.3,612.5,352.2,581.9,351.8z"/>
	<path class="st36" d="M621.2,337c0,0-39.3,20,22.4,70.2C643.5,407.1,657.7,335.6,621.2,337z"/>
	<path class="st37" d="M622.3,339c0,0-32.8,16.6,18.6,58.6C640.9,397.6,652.7,337.9,622.3,339z"/>
	<path class="st36" d="M651.2,325c0,0-25.8,20.7,29.5,55.8C680.7,381,678.2,320.2,651.2,325z"/>
	<path class="st37" d="M652.2,326.8c0,0-21.4,17.2,24.7,46.6C676.9,373.4,674.9,322.6,652.2,326.8z"/>
	<path class="st36" d="M541.5,350.4c0,0-43.8,4.8-3.9,73.5C537.6,424,576.1,362.2,541.5,350.4z"/>
	<path class="st37" d="M541.6,352.7c0,0-36.5,4-3.3,61.3C538.5,414.1,570.7,362.5,541.6,352.7z"/>
	<path class="st36" d="M500,343.4c0,0-44-2-15.2,72.1C484.9,415.4,532.5,360.5,500,343.4z"/>
	<path class="st37" d="M499.9,345.7c0,0-36.8-1.7-12.6,60.1C487.3,406,527,359.8,499.9,345.7z"/>
	<path class="st36" d="M465.6,334.2c0,0-33.1-0.7-13.6,61.7C452.1,396,489.4,348.1,465.6,334.2z"/>
	<path class="st37" d="M465.4,336.3c0,0-27.6-0.7-11.4,51.5C454,387.8,485.3,347.8,465.4,336.3z"/>
	<path class="st39" d="M564.3,329.4c0,0-43.3,7.8,0.9,73.6C565.4,403,599.7,338.9,564.3,329.4z"/>
	<path class="st37" d="M564.8,331.7c0,0-36.2,6.4,0.8,61.5C565.6,393.2,594.3,339.5,564.8,331.7z"/>
	<path class="st38" d="M596.8,323.3c0,0-40.3,17.7,18.5,71.3C615.3,394.6,633.4,324.1,596.8,323.3z"/>
	<path class="st37" d="M597.7,325.4c0,0-33.7,14.9,15.4,59.5C613.3,384.8,628.3,326,597.7,325.4z"/>
	<path class="st39" d="M633.4,311.4c0,0-38.6,21,24.2,69.6C657.7,380.8,669.9,309.1,633.4,311.4z"/>
	<path class="st37" d="M634.5,313.4c0,0-32.3,17.6,20.2,58.1C654.7,371.3,665,311.5,634.5,313.4z"/>
	<path class="st39" d="M663.7,317.3c0,0-14,16.9,31.5,43.8C695.3,361.2,681.9,313.1,663.7,317.3z"/>
	<path class="st37" d="M664.8,318.5c0,0-11.6,14.1,26.4,36.7C691.2,355.2,680,314.9,664.8,318.5z"/>
	<path class="st38" d="M528.9,325.7c0,0-44-2.5-16,71.9C512.9,397.6,561.2,343.1,528.9,325.7z"/>
	<path class="st37" d="M528.9,328.1c0,0-36.7-2.2-13.4,60C515.4,388,555.7,342.5,528.9,328.1z"/>
	<path class="st39" d="M494.1,318.7c0,0-42.9-10.1-28.3,68C465.8,386.8,522.9,341.5,494.1,318.7z"/>
	<path class="st37" d="M493.7,320.9c0,0-35.7-8.4-23.6,56.8C470,377.8,517.6,339.8,493.7,320.9z"/>
	<path class="st39" d="M464.1,320.7c0,0-20.7-7.5-30.4,44.6C433.7,365.4,474.4,336.2,464.1,320.7z"/>
	<path class="st37" d="M463.3,322.3c0,0-17.2-6.2-25.5,37.3C437.9,359.5,471.9,335.1,463.3,322.3z"/>
	<path class="st39" d="M550.9,296.2c0,0,41.8,14.1-12,72.7C539,368.7,514.6,300.2,550.9,296.2z"/>
	<path class="st37" d="M550.2,298.3c0,0,34.8,11.8-10.1,60.7C540.2,358.9,519.9,301.6,550.2,298.3z"/>
	<path class="st36" d="M520,291.9c0,0,39.3,19.7-21.9,70.2C498.1,362.3,483.5,291,520,291.9z"/>
	<path class="st41" d="M518.3,294.3c0,0,32.9,16.5-18.3,58.7C500,353,487.7,293.5,518.3,294.3z"/>
	<path class="st36" d="M490.4,283.6c0,0,36.7,24.4-30.3,67.1C460.2,350.7,454.3,278.2,490.4,283.6z"/>
	<path class="st41" d="M489.2,285.6c0,0,30.6,20.3-25.3,56.1C463.9,341.6,458.9,281,489.2,285.6z"/>
	<path class="st39" d="M576,293.7c0,0-41.8,14.1,12,72.7C587.9,366.2,612.3,297.6,576,293.7z"/>
	<path class="st37" d="M576.6,295.7c0,0-34.8,11.8,10.1,60.7C586.7,356.4,607,299.1,576.6,295.7z"/>
	<path class="st36" d="M607.6,289.8c0,0-39.3,19.7,21.9,70.2C629.5,360.1,644.1,288.7,607.6,289.8z"/>
	<path class="st41" d="M608.6,291.8c0,0-32.9,16.5,18.3,58.7C626.9,350.5,639.2,291,608.6,291.8z"/>
	<path class="st36" d="M637,279c0,0-36.7,24.3,30.3,67C667.3,346,673.2,273.5,637,279z"/>
	<path class="st41" d="M638.3,280.8c0,0-30.7,20.4,25.3,56.1C663.6,336.9,668.5,276.3,638.3,280.8z"/>
	<path class="st25" d="M511.2,220.5c22.2-4.2,44.1,8.7,54.2,30v52.2c-6.8,13.8-19.1,24.1-34.5,26.9c-27.3,5-53.7-15.2-59.3-45.4
		C466.4,254.1,483.9,225.5,511.2,220.5z"/>
	<path class="st25" d="M619.2,220c-22.2-4.2-44.1,8.7-54.2,30v52.2c6.8,13.8,19.1,24.1,34.5,26.9c27.3,5,53.7-15.2,59.3-45.4
		C664.1,253.6,646.4,225.2,619.2,220z"/>
	<path class="st42" d="M564.2,290.1c0,0-12.2-62.9-13.2-76.4c-0.2-2.4,0.3-4.8,1.4-6.9c1.2-2.3,2.9-4.3,5.1-5.8
		c0,0-2.5,10.2,1.1,13.4C565,220,564.2,290.1,564.2,290.1z"/>
	<path class="st43" d="M568.7,290.6c0,0-16-61.2-2.7-122.9c2.7,7.6,4.9,15.4,6.4,23.3c0.9,4.6,1,9.3,0.4,13.9l-3.8,26.7
		c-0.8,7.4-1.1,14.8-0.9,22.2L568.7,290.6z"/>
	<path class="st44" d="M557.6,276.5c0,0,6-54.3,21.5-73.5c-4.2-0.7-9.4,11.1-9.4,11.1S564.3,225.7,557.6,276.5z"/>
	<path class="st44" d="M575.8,306.7l-20.9-68.2l-4.5-20.3c-0.9-3-1-6.2-0.4-9.2c0.9-4.3,5.6-15.2,9.6-18.9
		c-6.7,0.7-13.3,7-16.5,10.8c-2.2,2.8-3.3,6.2-3.1,9.8c0.4,5.8,1.3,11.6,2.7,17.3C547.1,245.5,557.4,272.9,575.8,306.7z"/>
	<path class="st42" d="M562,296.2c0,0,3.3-67.2,10-79.4c6.7-12.2,16.1-16.1,20.6-23.9c2.5,6.7-5.9,22.7-9.6,30.1
		c-1.9,3.7-3.4,7.5-4.4,11.6L562,296.2z"/>
	<path class="st45" d="M562.4,267.6c0,0,1.7-22,8.4-30.8c-1.9-0.2-4.1,5.1-4.1,5.1S564.8,244.9,562.4,267.6z"/>
	<path class="st46" d="M562.4,268.9c0,0-11.5-21.7-16.6-25.3c-5.1-3.6-9.6-3.4-12.9-5.7c0.4,3.1,6.9,8,9.8,10.1
		c1.5,1.1,2.9,2.4,4.1,3.8L562.4,268.9z"/>
	<path class="st47" d="M562,272.3c0,0-6.1-27.3-23.9-49.2c0.5,3.5,1.2,7,2.3,10.4c0.6,2,1.5,3.9,2.7,5.6l6.9,9.9
		c1.8,2.8,3.4,5.7,4.9,8.6L562,272.3z"/>
	<path class="st48" d="M565.2,280.3l-0.6-31.4l0.5-9.2c0-1.4,0.3-2.8,0.9-4c0.9-1.7,4.2-5.9,6.3-7.1c-2.9-0.4-6.4,1.6-8.2,2.9
		c-1.3,1-2.1,2.3-2.5,3.9c-0.5,2.5-0.9,5.1-0.9,7.7C560.4,251.1,561.5,264,565.2,280.3z"/>
	<path class="st46" d="M563.1,269.5c0,0,7-23.5,11.3-28c4.2-4.5,8.7-5.3,11.5-8.1c0.3,3.1-5.2,9.1-7.6,11.9
		c-1.2,1.4-2.3,2.9-3.2,4.5L563.1,269.5z"/>
	<path class="st49" d="M563.4,271.9c0,0,1-26.8,2.3-33.1c0.2-1.1,0.7-2.2,1.5-3.1c0.8-0.9,1.8-1.7,3-2.2c0,0-2.4,4.5-1.1,6.3
		C571.3,243.1,563.4,271.9,563.4,271.9z"/>
	<path class="st47" d="M564.1,272.7c0,0,0.6-27.9,13.6-53c0.2,3.5,0.2,7.1-0.1,10.6c-0.2,2.1-0.7,4.1-1.5,6l-4.9,11
		c-1.2,3.1-2.2,6.2-3,9.4L564.1,272.7z"/>
	<path class="st47" d="M562.5,280l-5.7-30.9l-2.4-8.9c-0.3-1.4-0.8-2.6-1.7-3.7c-1.2-1.5-5.3-5-7.6-5.7c2.8-1,6.6,0.3,8.7,1.2
		c1.4,0.7,2.6,1.9,3.2,3.3c1,2.4,1.8,4.8,2.5,7.3C561.4,250.4,562.9,263.2,562.5,280z"/>
	<path class="st49" d="M562.6,271.4c0,0-6.3-26-8.8-32c-0.4-1.1-1.2-2-2.1-2.7c-1-0.8-2.2-1.3-3.4-1.5c0,0,3.2,3.9,2.3,6
		C549.2,244.7,562.6,271.4,562.6,271.4z"/>
	<path class="st46" d="M564.2,266.3c0,0-7.1-22.7-7.1-47.2c1.1,2.8,2,5.7,2.8,8.6c0.5,1.7,0.7,3.5,0.8,5.3l0.5,10.5
		c0.2,2.9,0.5,5.7,0.9,8.6L564.2,266.3z"/>
	<path class="st50" d="M564.5,280.3l-12.3,20c-0.5,0.8-0.6,1.8-0.3,2.6l13.5,36.8l12.9-36.8c0.3-0.9,0.2-1.8-0.3-2.6l-11.6-20
		c-0.2-0.5-0.8-0.8-1.4-0.5C564.8,279.9,564.6,280.1,564.5,280.3z"/>
	<path class="st51" d="M565,293.3l-6.7,11c-0.3,0.4-0.3,1-0.2,1.4l7.4,20.2l7.1-20.2c0.2-0.5,0.1-1-0.2-1.4l-6.4-11
		c-0.1-0.3-0.5-0.4-0.8-0.3C565.1,293.1,565,293.2,565,293.3z"/>
	
		<ellipse transform="matrix(0.1803 -0.9836 0.9836 0.1803 222.5363 832.1595)" class="st52" cx="610.6" cy="282.6" rx="39.1" ry="40.8"/>
	
		<ellipse transform="matrix(0.9836 -0.1803 0.1803 0.9836 -42.2987 98.4491)" class="st52" cx="520.3" cy="281.8" rx="40.8" ry="39.1"/>
	<ellipse class="st36" cx="605.4" cy="280.3" rx="35.1" ry="34.2"/>
	<ellipse class="st36" cx="525.4" cy="280.2" rx="35.1" ry="34.2"/>
	
		<ellipse transform="matrix(0.1803 -0.9836 0.9836 0.1803 216.7628 816.5394)" class="st53" cx="598.3" cy="278.2" rx="25.3" ry="25.3"/>
	
		<ellipse transform="matrix(0.9836 -0.1803 0.1803 0.9836 -41.4002 100.5694)" class="st53" cx="532.4" cy="278" rx="25.3" ry="25.3"/>
	
		<ellipse transform="matrix(0.1803 -0.9836 0.9836 0.1803 214.7577 812.6673)" class="st7" cx="595" cy="277.5" rx="19.7" ry="19.7"/>
	
		<ellipse transform="matrix(0.9836 -0.1803 0.1803 0.9836 -41.2599 101.1526)" class="st7" cx="535.6" cy="277.5" rx="19.7" ry="19.7"/>
	
		<ellipse transform="matrix(0.1803 -0.9836 0.9836 0.1803 214.5789 807.9012)" class="st54" cx="592" cy="275.2" rx="14.9" ry="14.9"/>
	<rect x="592.1" y="259.5" class="st55" width="0.1" height="31.2"/>
	
		<rect x="592.1" y="259.5" transform="matrix(0.9659 -0.2588 0.2588 0.9659 -51.0363 162.6254)" class="st55" width="0.1" height="31.2"/>
	<rect x="592.1" y="259.5" transform="matrix(0.866 -0.5 0.5 0.866 -58.2424 332.9158)" class="st55" width="0.1" height="31.2"/>
	
		<rect x="592.1" y="259.5" transform="matrix(0.7071 -0.7071 0.7071 0.7071 -21.1189 499.2732)" class="st55" width="0.1" height="31.2"/>
	
		<rect x="593.4" y="256.9" transform="matrix(0.4983 -0.867 0.867 0.4983 61.4246 651.2615)" class="st55" width="0.1" height="31.3"/>
	
		<rect x="592.1" y="259.5" transform="matrix(0.2588 -0.9659 0.9659 0.2588 173.1075 775.8553)" class="st55" width="0.1" height="31.2"/>
	<rect x="576.5" y="275.1" class="st55" width="31.2" height="0.1"/>
	
		<rect x="576.5" y="275.1" transform="matrix(0.9659 -0.2588 0.2588 0.9659 -51.0339 162.6253)" class="st55" width="31.2" height="0.1"/>
	<rect x="576.5" y="275.1" transform="matrix(0.866 -0.5 0.5 0.866 -58.2354 332.9156)" class="st55" width="31.2" height="0.1"/>
	
		<rect x="576.5" y="275.1" transform="matrix(0.7071 -0.7071 0.7071 0.7071 -21.1201 499.2702)" class="st55" width="31.2" height="0.1"/>
	<rect x="576.5" y="275.1" transform="matrix(0.5 -0.866 0.866 0.5 57.7889 650.3513)" class="st55" width="31.2" height="0.1"/>
	
		<rect x="574.2" y="273" transform="matrix(0.2589 -0.9659 0.9659 0.2589 173.4462 772.0772)" class="st55" width="31.3" height="0.1"/>
	
		<ellipse transform="matrix(0.1803 -0.9836 0.9836 0.1803 214.8476 807.4165)" class="st56" cx="591.9" cy="274.8" rx="11.6" ry="11.6"/>
	<path class="st57" d="M603.5,274.8c0-6.4-5.2-11.6-11.6-11.6c-6.4,0-11.6,5.2-11.6,11.6l0,0H603.5z"/>
	<ellipse transform="matrix(0.1803 -0.9836 0.9836 0.1803 215.0177 807.1183)" cx="591.8" cy="274.5" rx="8.8" ry="8.8"/>
	
		<ellipse transform="matrix(5.024427e-02 -0.9987 0.9987 5.024427e-02 294.3011 851.8821)" class="st58" cx="595.1" cy="271.2" rx="2.8" ry="3.6"/>
	
		<ellipse transform="matrix(5.024427e-02 -0.9987 0.9987 5.024427e-02 295.9551 852.3572)" class="st59" cx="596.1" cy="270.6" rx="1.4" ry="1.8"/>
	
		<ellipse transform="matrix(0.9836 -0.1803 0.1803 0.9836 -40.7832 101.6342)" class="st54" cx="538.5" cy="275.1" rx="14.9" ry="14.9"/>
	<rect x="538.4" y="259.5" class="st55" width="0.1" height="31.2"/>
	
		<rect x="522.8" y="275" transform="matrix(0.2588 -0.9659 0.9659 0.2588 133.3629 723.9755)" class="st55" width="31.2" height="0.1"/>
	<rect x="522.8" y="275" transform="matrix(0.5 -0.866 0.866 0.5 30.9835 603.8284)" class="st55" width="31.2" height="0.1"/>
	
		<rect x="522.8" y="275" transform="matrix(0.7071 -0.7071 0.7071 0.7071 -36.8075 461.2978)" class="st55" width="31.2" height="0.1"/>
	<rect x="522.8" y="275" transform="matrix(0.866 -0.5 0.5 0.866 -65.402 306.0664)" class="st55" width="31.2" height="0.1"/>
	
		<rect x="522.8" y="275" transform="matrix(0.9659 -0.2588 0.2588 0.9659 -52.8493 148.7286)" class="st55" width="31.2" height="0.1"/>
	<rect x="522.8" y="275" class="st55" width="31.2" height="0.1"/>
	
		<rect x="538.4" y="259.5" transform="matrix(0.2588 -0.9659 0.9659 0.2588 133.3652 723.9647)" class="st55" width="0.1" height="31.2"/>
	<rect x="538.4" y="259.5" transform="matrix(0.5 -0.866 0.866 0.5 30.9893 603.8364)" class="st55" width="0.1" height="31.2"/>
	
		<rect x="538.4" y="259.5" transform="matrix(0.7071 -0.7071 0.7071 0.7071 -36.8063 461.2993)" class="st55" width="0.1" height="31.2"/>
	<rect x="538.4" y="259.5" transform="matrix(0.866 -0.5 0.5 0.866 -65.4067 306.0682)" class="st55" width="0.1" height="31.2"/>
	
		<rect x="538.4" y="259.5" transform="matrix(0.9659 -0.2588 0.2588 0.9659 -52.8479 148.7301)" class="st55" width="0.1" height="31.2"/>
	
		<ellipse transform="matrix(0.9836 -0.1803 0.1803 0.9836 -40.7095 101.6554)" class="st56" cx="538.7" cy="274.7" rx="11.6" ry="11.6"/>
	<path class="st57" d="M527,274.7c0-6.4,5.2-11.6,11.6-11.6c6.4,0,11.6,5.2,11.6,11.6H527z"/>
	<ellipse transform="matrix(0.9836 -0.1803 0.1803 0.9836 -40.6602 101.6689)" cx="538.8" cy="274.4" rx="8.8" ry="8.8"/>
	
		<ellipse transform="matrix(0.9987 -5.024432e-02 5.024432e-02 0.9987 -12.9431 27.2508)" class="st58" cx="535.6" cy="271.1" rx="3.6" ry="2.8"/>
	
		<ellipse transform="matrix(0.9987 -5.024432e-02 5.024432e-02 0.9987 -12.913 27.1965)" class="st59" cx="534.5" cy="270.4" rx="1.8" ry="1.4"/>
	<path class="st60" d="M627.6,247.2c0,0-19.9,2.9-42.5,24c-5.7,5.3-9.6,13.4-13.6,21.9c0,0-8.3-26.6,12.2-40.3
		C604.3,238.9,627.6,247.2,627.6,247.2z"/>
	<path class="st60" d="M503,247.2c0,0,19.9,2.9,42.5,24c5.7,5.3,9.6,13.4,13.6,21.9c0,0,8.3-26.6-12.2-40.3
		C526.3,239,503,247.2,503,247.2z"/>
	<path class="st52" d="M565.3,296.7c0-1.1,0.3-17.2,0.7-22.2c0.8-10.1,3-25.7,14.9-34.6c9.3-6.9,22.6-5.8,32.9-5.1
		c4.8,0.3,8.9,0.5,11.5-0.3c20.3-5.9,51.5-40.3,51.5-40.3l-12.5,25.9c-1.9,3.6-4.1,7.1-6.6,10.3l-8.4,10.8
		c8.8,2.4,16.6,7.3,22.5,14.2c-10.6-3.1-21.4-5.5-32.4-7.2c-27.4-3.8-45.9,1.1-56.9,10.2C569.8,269.4,566.4,294.5,565.3,296.7z"/>
	<path class="st52" d="M565.2,296.6c0-1.1-0.4-17.2-0.8-22.2c-0.9-10.1-3.2-25.6-15.1-34.5c-9.3-6.9-22.7-5.7-32.9-5
		c-4.8,0.3-8.9,0.6-11.5-0.2c-20.3-5.8-51.7-40-51.7-40l12.6,25.8c1.9,3.6,4.1,7,6.6,10.2l8.5,10.8c-8.7,2.4-16.6,7.4-22.4,14.3
		c10.6-3.2,21.4-5.6,32.3-7.3c27.4-3.9,46.4,0.8,57.4,9.9C561.2,269.3,564.2,294.4,565.2,296.6z"/>
</g>
</svg>
