<svg width="512" height="320" xmlns="http://www.w3.org/2000/svg"><style>.st0{fill:none;} .st1{fill:#3A160D;stroke:#000000;stroke-width:0.5307;stroke-miterlimit:10;} .st2{fill:#48111B;} .st3{fill:#4C222B;} .st4{fill:#3A160D;stroke:#000000;stroke-miterlimit:10;} .st5{fill:#0A0505;} .st6{fill:#6D4B57;} .st7{fill:#593977;stroke:#8C72CB;stroke-width:0.3036;stroke-miterlimit:10;} .st8{fill:#0560CE;} .st9{fill:#68434E;} .st10{fill:#604684;} .st11{fill:#0D6FFC;} .st12{fill:#603541;} .st13{fill:#6C5599;} .st14{fill:#6D4752;} .st15{fill:#593977;} .st16{fill:#6B4D59;} .st17{fill:#6D5A9B;} .st18{fill:#48111B;stroke:#512733;stroke-width:0.6657;stroke-miterlimit:10;} .st19{fill:#4C1521;stroke:#512733;stroke-width:0.6657;stroke-miterlimit:10;} .st20{fill:#512531;stroke:#42212A;stroke-width:0.3036;stroke-miterlimit:10;} .st21{fill:#C1B4B8;stroke:#7C6069;stroke-width:0.2128;stroke-miterlimit:10;} .st22{fill:#EFE8EB;stroke:#776A6F;stroke-width:7.988056e-02;stroke-miterlimit:10;} .st23{fill:#C1B4B8;stroke:#7C6069;stroke-width:0.1935;stroke-miterlimit:10;} .st24{fill:#C1B4B8;stroke:#7C6069;stroke-width:7.693157e-02;stroke-miterlimit:10;} .st25{fill:#E8E3E5;stroke:#7C6069;stroke-width:3.391473e-02;stroke-miterlimit:10;} .st26{fill:#C1B4B8;stroke:#7C6069;stroke-width:0.2125;stroke-miterlimit:10;} .st27{fill:#E2DEDF;stroke:#7C6069;stroke-width:9.139655e-02;stroke-miterlimit:10;} .st28{fill:#EFCCC7;} .st29{fill:#49232D;} .st30{fill:#5B2E39;} .st31{fill:#167EF9;} .st32{fill:#1C8BF9;} .st33{fill:#4080FF;} .st34{fill:#036AE5;} .st35{fill:#056ED6;} .st36{fill:#512531;stroke:#8C72CB;stroke-width:0.3036;stroke-miterlimit:10;} .st37{fill:#4C222B;stroke:#8C72CB;stroke-width:0.8654;stroke-miterlimit:10;} .st38{fill:#47036B;} .st39{fill:#E6F5FC;} .st40{fill:#FFFFFF;} .st41{fill:#510375;} .st42{fill:#512733;} .st43{fill:#703C49;} .st44{fill:#3F1220;} .st45{fill:#481520;} .st46{fill:#542D3A;} .st47{fill:#341610;} .st48{fill:#5B3934;} .st49{fill:#421F59;} .st50{fill:#5B061D;} .st51{fill:#66423C;} .st52{fill:#472824;} .st53{fill:#593A43;} .st54{fill:#84453A;} .st55{fill:#082AF2;stroke:#2B040F;stroke-width:0.3328;stroke-miterlimit:10;} .st56{fill:#1640EF;stroke:#0D6FFC;stroke-width:0.1331;stroke-miterlimit:10;} .st57{fill:#2B040F;} .st58{fill:#DDF0ED;} .st59{fill:#1C0E0E;stroke:#0909B7;stroke-width:1.3313;stroke-miterlimit:10;} .st60{fill:#86B4F7;} .st61{fill:#030202;} .st62{fill:#0F0E0E;} .st63{fill:#F4E4E4;} .st64{fill:#F9F9F9;} .st65{opacity:0.87;fill:#2B040F;} .st66{opacity:0.6;fill:#2B040F;} .st67{fill:#3A160D;stroke:#000000;stroke-width:0.545;stroke-miterlimit:10;} .st68{fill:#593977;stroke:#8C72CB;stroke-width:0.3118;stroke-miterlimit:10;} .st69{fill:#48111B;stroke:#512733;stroke-width:0.6837;stroke-miterlimit:10;} .st70{fill:#4C1521;stroke:#512733;stroke-width:0.6837;stroke-miterlimit:10;} .st71{fill:#512531;stroke:#42212A;stroke-width:0.3118;stroke-miterlimit:10;} .st72{fill:#C1B4B8;stroke:#7C6069;stroke-width:0.2186;stroke-miterlimit:10;} .st73{fill:#EFE8EB;stroke:#776A6F;stroke-width:8.203888e-02;stroke-miterlimit:10;} .st74{fill:#C1B4B8;stroke:#7C6069;stroke-width:0.1988;stroke-miterlimit:10;} .st75{fill:#C1B4B8;stroke:#7C6069;stroke-width:7.901021e-02;stroke-miterlimit:10;} .st76{fill:#E8E3E5;stroke:#7C6069;stroke-width:3.483108e-02;stroke-miterlimit:10;} .st77{fill:#C1B4B8;stroke:#7C6069;stroke-width:0.2183;stroke-miterlimit:10;} .st78{fill:#E2DEDF;stroke:#7C6069;stroke-width:9.386603e-02;stroke-miterlimit:10;} .st79{fill:#512531;stroke:#8C72CB;stroke-width:0.3118;stroke-miterlimit:10;} .st80{fill:#4C222B;stroke:#8C72CB;stroke-width:0.8888;stroke-miterlimit:10;} .st81{fill:#082AF2;stroke:#2B040F;stroke-width:0.3418;stroke-miterlimit:10;} .st82{fill:#1640EF;stroke:#0D6FFC;stroke-width:0.1367;stroke-miterlimit:10;} .st83{fill:#1C0E0E;stroke:#0909B7;stroke-width:1.3673;stroke-miterlimit:10;}</style><path fill="none" id="canvas_background" d="M-1-1h514v322H-1z"/><g><g stroke="null" id="svg_484"><path id="svg_1" d="M181.85 171.347c-1.677 1.332-3.355 2.615-5.082 3.848-2.072-.148-4.242-.345-6.56-.592 2.564-1.135 4.932-2.368 7.152-3.7 1.58.148 3.06.345 4.49.444z" class="st0"/><path id="svg_2" d="M191.372 159.803c.79.05 1.628.148 2.368.197-4.342 4.933-8.24 8.387-11.94 11.347-1.43-.148-2.91-.247-4.44-.395 5.575-3.354 10.213-7.203 14.012-11.15z" class="st0"/><g id="svg_3"><g id="svg_4"><g id="svg_5"><path id="svg_6" d="M309.824 224.086c.395-1.382.74-2.91.888-4.736.494-5.476 2.615-8.782 4.786-10.805l-20.72-2.022-6.168 14.7.84.15.098-.15 20.276 2.863z" class="st6"/><path id="svg_7" d="M324.723 209.384l-3.207-.296c-1.874 2.368-3.404 5.723-3.848 10.607-.197 2.023-.542 3.8-.986 5.328l.592.1c.592.097 1.085.245 1.578.492l.395-.888c1.727-4.045 4.44-7.548 7.844-10.36 1.333-1.924.05-4.736-2.367-4.983z" class="st68"/><path id="svg_8" d="M310.762 219.35c-.148 1.825-.494 3.404-.89 4.736l6.81.986c.444-1.53.838-3.305.986-5.328.444-4.884 2.023-8.24 3.848-10.607l-5.97-.592c-2.17 1.974-4.29 5.33-4.784 10.805z" class="st8"/></g><g id="svg_9"><g id="svg_10"><path id="svg_11" d="M309.824 224.086l-20.227-2.91-.1.147 19.932 3.897c.147-.345.295-.74.394-1.134z" class="st9"/><path id="svg_12" d="M295.122 238.837c2.418-4.638 6.61-6.02 6.61-6.02s5.132-.838 7.697-7.547l-19.932-3.898-8.04 11.89v.197l.59.345.247-.346 12.827 5.377z" class="st9"/></g><g id="svg_13"><path id="svg_14" d="M316.14 226.553c-2.96 7.597-8.783 8.534-8.783 8.534s-4.242 1.382-7.054 5.92l8.386 3.553 11.84-11.742c1.776-2.516.79-5.87-1.776-7.203l-.592 1.332-2.023-.394z" class="st10"/><path id="svg_15" d="M316.682 225.072c-.148.543-.346 1.037-.494 1.48l2.072.395.592-1.332c-.493-.247-.986-.444-1.578-.493l-.592-.05z" class="st10"/></g><g id="svg_16"><path id="svg_17" d="M301.733 232.818s-4.193 1.38-6.61 6.02l5.23 2.22c2.81-4.54 7.054-5.92 7.054-5.92s5.82-.988 8.78-8.536l-6.708-1.332c-2.616 6.66-7.747 7.548-7.747 7.548z" class="st11"/><path id="svg_18" d="M309.43 225.27l6.71 1.332c.196-.493.344-.987.492-1.48l-6.808-.987c-.1.345-.247.74-.395 1.135z" class="st11"/></g></g><g id="svg_19"><g id="svg_20"><path id="svg_21" d="M295.122 238.837l-12.777-5.378-.247.345 12.334 6.512c.197-.543.444-1.036.69-1.48z" class="st12"/><path id="svg_22" d="M293.642 243.474c.198-1.184.444-2.22.84-3.157l-12.335-6.512-7.252 10.41 12.038 9.077c2.91-1.184 5.723-3.305 6.71-9.818z" class="st12"/></g><g id="svg_23"><path id="svg_24" d="M299.365 242.882c-.542 1.283-.986 2.714-1.282 4.39-.89 5.872-3.06 8.635-5.625 10.164l7.253 5.476 1.63-1.677c3.156-3.256 6.66-6.118 10.507-8.535l.247-.148c2.318-2.023 1.776-5.772-1.036-7.006l-2.32-.986-2.17 2.12-7.203-3.798z" class="st13"/><path id="svg_25" d="M299.365 242.882l7.252 3.848 2.17-2.12-8.386-3.553c-.393.543-.74 1.184-1.035 1.825z" class="st13"/></g><g id="svg_26"><path id="svg_27" d="M293.642 243.474c-.986 6.513-3.798 8.683-6.758 9.77l5.624 4.24c2.565-1.528 4.736-4.29 5.624-10.162.247-1.677.69-3.108 1.283-4.39l-4.934-2.615c-.394.937-.69 1.973-.838 3.157z" class="st8"/><path id="svg_28" d="M294.432 240.317l4.933 2.615c.296-.69.642-1.283.987-1.875l-5.23-2.22c-.246.444-.493.937-.69 1.48z" class="st8"/></g></g><g id="svg_29"><g id="svg_30"><path id="svg_31" d="M290.04 258.62c-.838.296-1.726.543-2.564.74-3.207.84-7.55 2.862-9.77 7.203l6.66 10.262 9.868-2.418c3.552-.888 6.463-3.453 7.746-6.857.543-1.382.05-2.96-1.135-3.848l-1.036-.79-2.22 2.27-7.55-6.562z" class="st10"/><path id="svg_32" d="M290.04 258.62l7.5 6.61 2.22-2.268-7.252-5.477c-.84.444-1.628.84-2.467 1.135z" class="st10"/></g><g id="svg_33"><path id="svg_34" d="M274.945 262.37c1.53-5.23 6.068-7.45 9.373-8.338.148-.05.247-.05.395-.1l-10.31-9.076.443-.69-.345-.248-8.337 8.437.05.098 1.43-1.282 7.302 11.2z" class="st9"/><path id="svg_35" d="M284.713 253.933c.74-.197 1.43-.394 2.17-.69l-12.037-9.078-.444.69 10.31 9.078z" class="st9"/></g><g id="svg_36"><path id="svg_37" d="M284.318 254.032c-3.256.888-7.844 3.108-9.373 8.338l2.713 4.193c2.27-4.34 6.56-6.364 9.768-7.203.84-.247 1.727-.444 2.566-.74l-5.33-4.687c-.097 0-.196.05-.344.1z" class="st11"/><path id="svg_38" d="M284.713 253.933l5.328 4.687c.84-.296 1.678-.64 2.468-1.135l-5.624-4.242c-.74.246-1.48.493-2.17.69z" class="st11"/></g></g><g id="svg_39"><g id="svg_40"><path id="svg_41" d="M274.353 265.724l-8.09-13.37-6.218 5.575.1.838 6.462 15.146c3.108-.987 6.61-2.862 7.746-8.19z" class="st14"/><g id="svg_42"><path id="svg_43" d="M274.5 264.886c.1-.938.247-1.776.445-2.566l-7.253-11.248-1.43 1.283 8.09 13.37c.05-.247.1-.543.15-.84z" class="st14"/></g></g><g id="svg_44"><path id="svg_45" d="M276.622 269.523c-.148.74-.296 1.48-.395 2.27-.838 5.328-3.6 7.893-6.61 9.373l3.305 7.696 2.072-2.022c1.776-1.678 3.848-2.96 6.167-3.7l.84-.297c2.466-.838 3.6-3.7 2.318-5.97v-.048l-2.812.69-4.884-7.992z" class="st15"/><path id="svg_46" d="M276.622 269.523l4.884 8.042 2.812-.69-6.66-10.263c-.444.84-.79 1.826-1.036 2.91z" class="st15"/></g><g id="svg_47"><path id="svg_48" d="M266.558 273.963l3.058 7.203c2.96-1.48 5.773-3.996 6.61-9.374.05-.838.2-1.578.396-2.27l-2.27-3.748c-1.134 5.278-4.637 7.153-7.794 8.19z" class="st8"/><path id="svg_49" d="M274.5 264.886c-.05.296-.098.542-.147.838l2.27 3.75c.246-1.086.59-2.072 1.084-2.96l-2.713-4.194c-.247.84-.444 1.678-.493 2.566z" class="st8"/></g></g><g id="svg_50"><g id="svg_51"><path id="svg_52" d="M262.66 283.534l-.84-8.09c-2.515.986-5.03 2.515-6.313 5.13v7.598c1.776-2.37 4.588-3.75 7.153-4.638z" class="st11"/><path id="svg_53" d="M264.683 274.506c-.888.247-1.875.543-2.862.937l.84 8.09c.79-.295 1.628-.542 2.32-.74 1.43-.394 3.058-.887 4.636-1.627l-3.058-7.203c-.642.198-1.283.395-1.875.543z" class="st11"/></g><g id="svg_54"><path id="svg_55" d="M261.822 275.443l-1.727-16.626-4.49-10.508-.098 32.264c1.282-2.615 3.848-4.144 6.315-5.13z" class="st16"/><path id="svg_56" d="M264.683 274.506c.592-.148 1.233-.345 1.875-.543l-6.463-15.146 1.726 16.626c.988-.394 1.975-.69 2.863-.937z" class="st16"/></g><g id="svg_57"><path id="svg_58" d="M262.66 283.534c-2.615.888-5.377 2.27-7.153 4.638l-.05 24.618 12.235-7.598c4.983-2.368 7.697-7.844 6.562-13.27l-1.332-3.11-8.83 8.437-1.432-13.716z" class="st17"/><path id="svg_59" d="M265.028 282.794c-.74.197-1.53.444-2.318.74l1.43 13.764 8.83-8.436-3.304-7.696c-1.58.79-3.207 1.233-4.638 1.628z" class="st17"/></g></g></g><g id="svg_60"><g id="svg_61"><path id="svg_62" d="M201.485 223.84c-.395-1.382-.74-2.96-.888-4.737-.444-5.476-2.565-8.83-4.736-10.854l20.722-1.925 6.117 14.702-.84.148-.098-.148-20.277 2.812z" class="st6"/><path id="svg_63" d="M186.685 209.088l3.207-.296c1.825 2.368 3.404 5.772 3.798 10.607.198 2.022.543 3.798.987 5.376l-.592.1c-.592.098-1.085.246-1.58.492l-.393-.888c-1.727-4.045-4.39-7.597-7.795-10.36-1.382-2.023-.1-4.785 2.368-5.032z" class="st68"/><path id="svg_64" d="M200.597 219.103c.148 1.825.444 3.404.888 4.736l-6.808.936c-.444-1.53-.79-3.305-.987-5.377-.394-4.885-1.973-8.29-3.798-10.608l5.97-.543c2.17 2.022 4.29 5.327 4.735 10.853z" class="st8"/></g><g id="svg_65"><g id="svg_66"><path id="svg_67" d="M201.485 223.84l20.227-2.813.1.148-19.98 3.8c-.1-.347-.248-.74-.347-1.136z" class="st9"/><path id="svg_68" d="M216.138 238.64c-2.418-4.638-6.61-6.07-6.61-6.07s-5.132-.887-7.697-7.596l19.98-3.8 7.944 11.89v.198l-.592.345-.247-.345-12.777 5.378z" class="st9"/></g><g id="svg_69"><path id="svg_70" d="M195.17 226.257c2.91 7.597 8.733 8.584 8.733 8.584s4.193 1.43 7.005 5.97l-8.436 3.503-11.79-11.79c-1.777-2.566-.74-5.92 1.824-7.204l.543 1.33 2.12-.393z" class="st10"/><path id="svg_71" d="M194.628 224.776c.148.543.345 1.037.493 1.48l-2.07.395-.544-1.33c.494-.248.987-.445 1.58-.494l.542-.05z" class="st10"/></g><g id="svg_72"><path id="svg_73" d="M209.527 232.57s4.193 1.432 6.61 6.07l-5.23 2.17c-2.81-4.54-7.004-5.97-7.004-5.97s-5.822-.986-8.733-8.583l6.71-1.283c2.516 6.76 7.647 7.597 7.647 7.597z" class="st11"/><path id="svg_74" d="M201.88 224.974l-6.71 1.283c-.197-.494-.345-.987-.493-1.48l6.808-.938c.1.394.247.788.395 1.134z" class="st11"/></g></g><g id="svg_75"><g id="svg_76"><path id="svg_77" d="M216.138 238.64l12.777-5.33.247.347-12.383 6.463c-.198-.543-.396-1.036-.642-1.48z" class="st12"/><path id="svg_78" d="M217.618 243.277c-.148-1.184-.444-2.22-.79-3.157l12.383-6.463 7.204 10.41-12.087 9.028c-2.96-1.135-5.772-3.306-6.71-9.818z" class="st12"/></g><g id="svg_79"><path id="svg_80" d="M211.895 242.685c.542 1.283.986 2.713 1.233 4.39.84 5.872 3.01 8.684 5.575 10.213l-7.252 5.427-1.627-1.678c-3.158-3.256-6.66-6.117-10.46-8.584l-.246-.148c-2.32-2.022-1.776-5.772 1.036-7.005l2.32-.987 2.12 2.12 7.302-3.748z" class="st13"/><path id="svg_81" d="M211.895 242.685l-7.252 3.8-2.122-2.123 8.437-3.502c.296.542.642 1.184.938 1.825z" class="st13"/></g><g id="svg_82"><path id="svg_83" d="M217.618 243.277c.937 6.512 3.75 8.683 6.71 9.818l-5.625 4.193c-2.565-1.53-4.736-4.34-5.575-10.212-.247-1.678-.69-3.108-1.233-4.39l4.933-2.566c.346.937.592 1.973.79 3.157z" class="st8"/><path id="svg_84" d="M216.78 240.12l-4.935 2.565c-.296-.69-.64-1.283-.986-1.875l5.228-2.17c.296.444.494.937.69 1.48z" class="st8"/></g></g><g id="svg_85"><g id="svg_86"><path id="svg_87" d="M221.12 258.423c.84.296 1.727.542 2.566.79 3.207.887 7.548 2.86 9.768 7.25l-6.71 10.263-9.817-2.467c-3.552-.89-6.414-3.454-7.696-6.908-.493-1.38-.05-2.96 1.135-3.848l1.036-.79 2.22 2.27 7.5-6.56z" class="st10"/><path id="svg_88" d="M221.12 258.423l-7.548 6.56-2.22-2.268 7.252-5.427c.888.493 1.727.84 2.516 1.135z" class="st10"/></g><g id="svg_89"><path id="svg_90" d="M236.167 262.27c-1.48-5.278-6.068-7.498-9.324-8.386-.148-.05-.246-.05-.394-.1l10.36-9.027-.445-.69.345-.247 8.288 8.436-.05.1-1.43-1.284-7.35 11.2z" class="st9"/><path id="svg_91" d="M226.498 253.785c-.74-.197-1.43-.394-2.17-.69l12.086-9.03.444.692-10.36 9.028z" class="st9"/></g><g id="svg_92"><path id="svg_93" d="M226.893 253.884c3.256.888 7.844 3.108 9.324 8.387l-2.763 4.194c-2.22-4.39-6.512-6.364-9.768-7.252-.84-.247-1.727-.444-2.566-.79l5.33-4.637c.147.05.295.05.443.1z" class="st11"/><path id="svg_94" d="M226.498 253.785l-5.328 4.638c-.84-.296-1.678-.642-2.467-1.135l5.624-4.193c.69.296 1.43.493 2.17.69z" class="st11"/></g></g><g id="svg_95"><g id="svg_96"><path id="svg_97" d="M236.81 265.675l8.14-13.32 6.215 5.624-.098.837-6.513 15.097c-3.157-1.036-6.66-2.96-7.745-8.24z" class="st14"/><g id="svg_98"><path id="svg_99" d="M236.66 264.836c-.05-.937-.246-1.776-.443-2.565l7.35-11.247 1.43 1.282-8.14 13.32c-.098-.246-.196-.493-.196-.79z" class="st14"/></g></g><g id="svg_100"><path id="svg_101" d="M234.49 269.424c.148.74.296 1.48.345 2.27.79 5.328 3.553 7.943 6.562 9.373l-3.305 7.647-2.073-2.022c-1.727-1.678-3.85-2.96-6.118-3.75l-.84-.296c-2.465-.84-3.55-3.7-2.317-5.97v-.05l2.812.692 4.933-7.894z" class="st15"/><path id="svg_102" d="M234.49 269.424l-4.933 8.042-2.812-.69 6.71-10.262c.443.838.788 1.825 1.035 2.91z" class="st15"/></g><g id="svg_103"><path id="svg_104" d="M244.505 273.914l-3.108 7.203c-2.96-1.48-5.723-4.046-6.562-9.374-.05-.84-.197-1.58-.345-2.27l2.32-3.75c1.084 5.23 4.587 7.155 7.695 8.19z" class="st8"/><path id="svg_105" d="M236.66 264.836c.05.296.1.543.15.84l-2.32 3.748c-.247-1.085-.592-2.072-1.036-2.96l2.763-4.193c.197.79.345 1.63.444 2.566z" class="st8"/></g></g><g id="svg_106"><g id="svg_107"><path id="svg_108" d="M248.353 283.485l.888-8.042c2.468.987 5.033 2.516 6.267 5.18v7.598c-1.776-2.417-4.54-3.798-7.154-4.735z" class="st11"/><path id="svg_109" d="M246.43 274.506c.887.247 1.874.543 2.86.937l-.888 8.042c-.79-.296-1.578-.543-2.318-.74-1.43-.395-3.06-.888-4.638-1.678l3.108-7.203c.642.247 1.283.445 1.875.642z" class="st11"/></g><g id="svg_110"><path id="svg_111" d="M249.24 275.443l1.827-16.626 4.538-10.508-.05 32.264c-1.282-2.615-3.798-4.144-6.314-5.13z" class="st16"/><path id="svg_112" d="M246.43 274.506c-.593-.148-1.234-.345-1.876-.592l6.513-15.097-1.826 16.626c-.986-.394-1.923-.69-2.81-.937z" class="st16"/></g><g id="svg_113"><path id="svg_114" d="M248.353 283.485c2.566.937 5.378 2.318 7.154 4.687l-.05 24.618-12.235-7.647c-4.982-2.418-7.647-7.894-6.512-13.27l1.332-3.06 8.782 8.485 1.53-13.813z" class="st17"/><path id="svg_115" d="M246.034 282.745c.74.197 1.53.444 2.32.74l-1.48 13.715-8.782-8.486 3.305-7.647c1.58.79 3.207 1.283 4.637 1.678z" class="st17"/></g></g></g></g><g id="svg_116"><path id="svg_117" d="M255.36 200.257L239.77 248.9s-20.18 4.44-15.59-15.095c4.637-19.586 31.18-33.548 31.18-33.548z" class="st69"/><path id="svg_118" d="M255.556 203.217l.444 65.517s-13.962-1.086-17.267-13.715c-3.355-12.73 16.823-51.803 16.823-51.803z" class="st70"/><path id="svg_119" d="M256.395 200.06l-31.032 29.058s-16.527 4.39-15.047-12.827 46.08-16.23 46.08-16.23z" class="st70"/><path id="svg_120" d="M255.704 198.728l-37.445 8.584c-2.912.69-5.92-.493-7.55-2.96-1.134-1.825-1.48-4.194 1.037-6.858 4.983-5.476 43.957 1.234 43.957 1.234z" class="st69"/><path id="svg_121" d="M254.964 203.217l.84 65.517s13.91-1.382 16.97-14.06c3.06-12.73-17.81-51.457-17.81-51.457z" class="st69"/><path id="svg_122" d="M255.507 201.935l30.982 29.206s16.477 4.44 15.046-12.728-46.03-16.477-46.03-16.477z" class="st69"/><path id="svg_123" d="M255.507 199.714l37.445 8.683c2.91.69 5.92-.493 7.548-2.96 1.135-1.825 1.48-4.193-1.036-6.857-4.934-5.328-43.957 1.134-43.957 1.134z" class="st70"/><path id="svg_124" d="M255.457 201.935l17.317 48.1s20.375 3.7 15.047-15.638-32.363-32.462-32.363-32.462z" class="st70"/></g><g id="svg_125"><path id="svg_126" d="M256.84 128.574V241.5s-.94-20.325-12.088-30.735c-4.983-4.736-10.953-4.34-22.94-10.508-14.9-7.696-28.32-47.164.492-71.24 24.964-.197 34.535-.443 34.535-.443z" class="st71"/><path id="svg_127" d="M255.9 128.77V241.7s.94-20.326 12.088-30.735c4.983-4.736 10.953-4.342 22.94-10.51 14.9-7.695 28.32-47.163-.492-71.238-24.964-.1-34.535-.444-34.535-.444z" class="st71"/></g><g id="svg_128"><g id="svg_129"><path id="svg_130" d="M277.61 228.378l.54 8.683c.1 1.234.347 2.468.84 3.602.79 1.826 1.924 3.65 3.453 3.75 1.53.05 3.01-.592 3.65-3.108 1.185-5.033-8.484-12.926-8.484-12.926z" class="st68"/><path id="svg_131" d="M280.717 233.854l.148 3.7c.098.592.246 1.135.493 1.678.395.838.987 1.726 1.628 1.776.64.05 1.283-.198 1.48-1.382.345-2.32-3.75-5.772-3.75-5.772z" class="st72"/><path id="svg_132" d="M282.05 236.37l.048 1.628c.05.247.1.494.197.74.198.395.444.74.74.79.296 0 .592-.1.642-.592.148-1.036-1.628-2.566-1.628-2.566z" class="st73"/></g><g id="svg_133"><path id="svg_134" d="M226.547 239.232c.543 2.565 2.023 3.256 3.552 3.206 1.53-.05 2.713-1.874 3.55-3.65.544-1.135.84-2.32.988-3.553l.84-8.682c-.05.05-9.967 7.597-8.93 12.68z" class="st68"/><path id="svg_135" d="M228.225 237.554c.148 1.184.79 1.48 1.43 1.43.69-.048 1.283-.887 1.727-1.726.296-.543.444-1.085.543-1.677l.246-3.65s-4.24 3.305-3.945 5.624z" class="st72"/><path id="svg_136" d="M229.014 236.913c.05.493.345.64.64.64.297 0 .544-.394.74-.74.1-.246.2-.492.248-.74l.1-1.627s-1.827 1.43-1.728 2.467z" class="st73"/></g><g id="svg_137"><path id="svg_138" d="M287.328 210.47l3.798 6.956c.543.986 1.234 1.874 2.072 2.614 1.332 1.184 3.01 2.27 4.292 1.776 1.283-.542 2.27-1.628 1.826-3.946-.987-4.59-11.988-7.4-11.988-7.4z" class="st68"/><path id="svg_139" d="M291.965 213.775l1.53 2.96c.295.444.64.84 1.035 1.184.642.542 1.48 1.035 2.023.838.543-.198.987-.69.69-1.727-.542-1.972-5.278-3.255-5.278-3.255z" class="st74"/><path id="svg_140" d="M294.037 215.354l.69 1.332c.15.197.297.394.445.542.296.247.64.444.888.395.246-.1.444-.296.296-.74-.247-.987-2.32-1.53-2.32-1.53z" class="st73"/></g><g id="svg_141"><path id="svg_142" d="M224.623 209.335l-4.045 6.808c-.592.937-1.283 1.825-2.17 2.565-1.382 1.135-3.11 2.17-4.342 1.58-1.234-.593-2.22-1.728-1.63-4.046 1.087-4.54 12.187-6.907 12.187-6.907z" class="st68"/><path id="svg_143" d="M219.838 212.443l-1.628 2.91c-.296.445-.69.84-1.086 1.135-.69.494-1.53.987-2.072.79-.542-.247-.937-.74-.64-1.727.69-2.022 5.426-3.107 5.426-3.107z" class="st74"/><path id="svg_144" d="M217.716 213.972l-.74 1.283c-.148.197-.296.345-.493.493-.296.247-.64.444-.937.346-.247-.1-.444-.296-.296-.74.345-.938 2.466-1.382 2.466-1.382z" class="st73"/></g><g id="svg_145"><path id="svg_146" d="M292.705 200.997l2.763 1.43c.394.198.79.346 1.233.396.692.05 1.432.05 1.728-.444.296-.495.345-1.087-.345-1.778-1.333-1.332-5.378.395-5.378.395z" class="st68"/><path id="svg_147" d="M295.122 200.997l1.332.592c.198.098.395.147.592.147.346.05.69 0 .84-.197.147-.198.147-.444-.15-.74-.69-.543-2.614.197-2.614.197z" class="st75"/><path id="svg_148" d="M296.405 200.997l.543.296c.098.05.148.05.246.1.148 0 .296.048.395-.05.048-.1.098-.198-.05-.346-.247-.247-1.135 0-1.135 0z" class="st76"/></g><g id="svg_149"><path id="svg_150" d="M218.26 199.616l-2.862 1.184c-.395.148-.84.246-1.283.296-.69 0-1.43-.1-1.678-.592-.246-.494-.246-1.135.494-1.727 1.432-1.233 5.33.84 5.33.84z" class="st68"/><path id="svg_151" d="M215.842 199.418l-1.382.494c-.197.05-.394.098-.592.098-.345 0-.69-.05-.84-.246-.097-.198-.147-.494.2-.74.74-.494 2.614.394 2.614.394z" class="st75"/><path id="svg_152" d="M214.56 199.27l-.593.247c-.1.05-.148.05-.247.05-.148 0-.296 0-.345-.1-.05-.098-.05-.197.05-.345.295-.148 1.134.148 1.134.148z" class="st76"/></g><g id="svg_153"><path id="svg_154" d="M262.858 236.765l-.346 12.383c-.148 1.283-.098 2.565.198 3.897.444 2.072 1.184 4.243 2.565 4.736 1.38.495 2.91.248 3.947-2.17 1.973-4.834-6.364-18.845-6.364-18.845z" class="st68"/><path id="svg_155" d="M265.127 245.94l.247 5.428c-.05.592 0 1.233.148 1.825.197.987.592 2.023 1.184 2.32.592.246 1.233.147 1.628-.988.79-2.22-3.207-8.584-3.207-8.584z" class="st77"/><path id="svg_156" d="M266.31 249.493l.1 2.32c0 .246 0 .542.05.788.098.445.246.89.492.988.247.1.543.05.69-.395.346-.986-1.33-3.7-1.33-3.7z" class="st78"/></g><g id="svg_157"><path id="svg_158" d="M247.317 236.567l.543 12.383c.148 1.283.148 2.566-.1 3.898-.394 2.072-1.134 4.292-2.515 4.785-1.38.494-2.91.296-3.947-2.12-2.072-4.737 6.02-18.946 6.02-18.946z" class="st68"/><path id="svg_159" d="M245.245 245.842l-.148 5.427c.05.59 0 1.233-.1 1.825-.196.986-.54 2.072-1.133 2.318-.592.247-1.234.198-1.678-.937-.838-2.22 3.06-8.634 3.06-8.634z" class="st77"/><path id="svg_160" d="M244.11 249.394l-.05 2.32c0 .246 0 .542-.048.79-.1.443-.247.887-.494.985-.246.098-.542.098-.69-.395-.346-.938 1.282-3.7 1.282-3.7z" class="st78"/></g></g><path id="svg_161" d="M350.28 162.17c2.07 1.234 4.143 2.27 6.116 3.306 1.727-.345 3.404-.79 5.13-1.184-2.416-.937-4.735-1.973-6.955-3.157-1.48.345-2.86.69-4.29 1.036z" class="st0"/><g id="svg_162"><path id="svg_163" d="M373.515 51.66c.296-.492-.098-1.084-.64-1.084-6.217.246-10.805 2.713-13.32 8.83-9.67 19.636 10.063-.887 13.96-7.745z" class="st28"/><path id="svg_164" d="M413.378 134.445c3.552.79 6.76 1.184 9.768 1.48 1.085-.84 2.17-1.678 3.305-2.566-3.255-.198-6.56-.74-9.718-1.48-1.134.887-2.22 1.726-3.354 2.565z" class="st0"/><path id="svg_165" d="M395.815 128.92c6.66 2.663 12.432 4.39 17.563 5.475 1.134-.838 2.22-1.677 3.354-2.565-6.314-1.43-12.136-3.552-17.267-5.822-1.184.987-2.368 1.974-3.65 2.91z" class="st0"/><path id="svg_166" d="M436.91 77.512c-.542 1.036-.986 2.072-1.578 3.108 9.225.444 16.576-.148 22.694-1.184.64-1.38 1.233-2.762 1.776-4.094-7.894 1.924-15.935 2.368-22.892 2.17z" class="st0"/><path id="svg_167" d="M446.284 100.502c4.292-.197 8.04-.64 11.347-1.332.84-1.332 1.63-2.614 2.468-3.946-3.8.986-7.647 1.48-11.545 1.726-.69 1.135-1.48 2.32-2.27 3.552z" class="st0"/><path id="svg_168" d="M426.846 95.322c-.79 1.184-1.58 2.467-2.467 3.65 8.88 1.382 15.934 1.728 21.904 1.48.84-1.183 1.58-2.367 2.368-3.65-7.696.494-15.294-.296-21.806-1.48z" class="st0"/><path id="svg_169" d="M411.158 115.303c7.45 2.467 13.764 3.8 19.29 4.54 1.332-1.333 2.614-2.715 3.946-4.096-7.35-.642-14.257-2.32-19.832-4.095-1.135 1.184-2.27 2.417-3.404 3.65z" class="st0"/><path id="svg_170" d="M434.296 115.697c-1.332 1.382-2.566 2.763-3.947 4.095 3.748.444 7.152.592 10.36.592 1.43-1.43 2.81-2.96 4.193-4.54-3.503.2-7.105.15-10.607-.147z" class="st0"/><path id="svg_171" d="M338.438 152.945c4.095 4.095 8.042 6.907 11.89 9.226 1.43-.345 2.812-.64 4.292-1.035-4.933-2.566-9.374-5.575-13.222-8.683-1.036.148-2.022.345-2.96.493z" class="st0"/><path id="svg_172" d="M393.545 146.68c2.862 1.085 5.526 1.924 8.09 2.664 1.63-.84 3.257-1.727 4.935-2.664-3.158-.543-6.118-1.234-9.03-2.072-1.38.69-2.663 1.38-3.995 2.072z" class="st0"/><path id="svg_173" d="M373.614 155.313c2.565 1.234 4.983 2.122 7.35 3.01 1.135-.395 2.27-.84 3.405-1.283-2.616-.84-5.083-1.825-7.55-2.96-.986.444-2.07.84-3.206 1.233z" class="st0"/><path id="svg_174" d="M360.392 147.518c4.835 3.454 9.226 5.92 13.27 7.845 1.087-.395 2.172-.79 3.208-1.184-4.884-2.27-9.226-4.984-13.074-7.796-1.085.394-2.27.79-3.404 1.134z" class="st0"/><path id="svg_175" d="M379.238 139.477c5.28 3.157 10.015 5.525 14.307 7.203 1.332-.642 2.615-1.382 3.947-2.122-5.822-1.825-11.05-4.193-15.49-6.61-.94.542-1.876.986-2.764 1.53z" class="st0"/><path id="svg_176" d="M317.866 155.708c.74-.1 1.48-.148 2.17-.247 3.553 3.553 7.894 6.908 13.025 9.82 5.132-.692 10.953-1.728 17.22-3.11-3.8-2.318-7.796-5.13-11.89-9.225.986-.148 1.972-.345 2.96-.493 3.847 3.108 8.287 6.117 13.22 8.683 6.07-1.53 12.482-3.404 19.093-5.822-4.045-1.924-8.436-4.39-13.27-7.844 1.134-.396 2.318-.79 3.403-1.185 3.848 2.812 8.19 5.575 13.074 7.795 5.476-2.122 11.002-4.588 16.626-7.45-4.292-1.677-9.028-3.996-14.307-7.203.887-.493 1.824-.986 2.712-1.48 4.44 2.418 9.67 4.786 15.49 6.61 5.38-2.96 10.707-6.314 15.936-10.162-5.13-1.085-10.903-2.86-17.563-5.476 1.283-.938 2.467-1.925 3.7-2.862 5.13 2.27 10.953 4.44 17.267 5.82 4.687-3.65 9.275-7.646 13.666-12.086-5.575-.69-11.79-2.072-19.29-4.54 1.135-1.183 2.27-2.465 3.355-3.65 5.575 1.678 12.482 3.405 19.833 4.095 4.242-4.588 8.24-9.718 11.94-15.195-5.97.247-12.976-.148-21.906-1.48.84-1.184 1.677-2.466 2.467-3.65 6.512 1.184 14.11 1.973 21.756 1.48 3.404-5.378 6.513-11.15 9.374-17.366-6.118 1.085-13.518 1.578-22.694 1.184.543-1.036 1.036-2.122 1.58-3.108 6.955.197 14.996-.296 22.94-2.22 2.762-6.562 5.18-13.567 7.202-21.066-6.02 2.318-13.37 4.243-22.792 5.525.345-.985.69-1.972 1.036-2.91 7.497-1.825 15.687-4.49 23.334-8.584 1.58-6.956 2.86-14.257 3.848-22.003-5.575 3.552-12.482 7.006-21.806 10.064.345-1.726.444-2.664.444-2.664-7.745 2.17-20.178 7.4-69.562 12.827-11.1 1.234-20.375 8.93-23.977 19.487-21.36 63.1-69.955 50.766-69.955 50.766l.64 10.705h-.196s.048.296.196.84l1.628 27.577c4.934.494 9.374.69 13.42.69 3.107 3.652 6.857 7.204 11.15 10.213 3.255-.098 8.287-.345 14.602-1.085-3.404-2.566-7.055-5.624-11.1-10.015z" class="st71"/><g id="svg_177"><path id="svg_178" d="M490.142 68.484c-7.153 2.27-13.073 5.476-20.473 7.943-2.912 6.66-6.12 12.926-9.572 18.65 12.383-3.11 23.878-10.707 30.044-26.593z" class="st6"/><path id="svg_179" d="M370.85 173.123c-4.538-3.157-9.323-5.18-14.503-7.696-6.068 1.332-11.693 2.27-16.725 2.96 8.585 3.503 18.896 5.525 31.23 4.736z" class="st29"/><path id="svg_180" d="M481.46 91.87c-8.585 2.12-14.95 5.376-23.928 7.25-3.947 6.07-8.24 11.693-12.728 16.725 14.16-.937 28.318-6.906 36.656-23.976z" class="st9"/><path id="svg_181" d="M450.823 135.43c-9.226-.245-17.267 1.284-27.776.396-5.427 4.095-11.05 7.647-16.625 10.804 13.517 2.27 29.107.444 44.4-11.2z" class="st12"/><path id="svg_182" d="M465.376 118.362c-8.386.246-15.59 1.825-24.716 1.973-4.588 4.736-9.374 9.078-14.307 12.926 13.22.938 27.282-2.318 39.023-14.898z" class="st9"/><path id="svg_183" d="M496.31 7.21c-4.39 3.257-8.14 6.66-12.236 10.163-.69 7.795-1.825 15.195-3.157 22.2 8.436-7.597 14.554-18.055 15.392-32.363z" class="st6"/><path id="svg_184" d="M497 37.502c-6.364 3.355-11.643 7.35-18.056 11.002-1.925 8.04-4.342 15.59-7.105 22.546 11.74-5.625 21.657-15.788 25.16-33.548z" class="st6"/><path id="svg_185" d="M402.13 164.687c-7.105-2.566-13.716-3.75-21.165-6.364-6.71 2.466-13.32 4.44-19.487 5.92 11.396 4.34 25.11 5.673 40.65.444z" class="st30"/><path id="svg_186" d="M319.592 170.015c6.61 3.552 14.505 6.068 23.878 6.512-3.256-2.86-6.462-5.13-9.817-7.45-6.216.69-11.1.89-14.06.938z" class="st3"/><path id="svg_187" d="M425.76 154.03c-8.04-2.022-15.44-2.417-24.173-4.785-5.772 3.01-11.495 5.526-17.17 7.746 11.792 3.7 25.803 4.194 41.344-2.96z" class="st30"/></g><g id="svg_188"><path id="svg_189" d="M459.802 75.342c4.094-.987 8.24-2.418 12.087-4.292 2.76-7.055 5.08-14.554 7.054-22.546-3.503 2.022-7.35 3.897-11.99 5.624-1.972 7.5-4.44 14.652-7.152 21.214z" class="st31"/><path id="svg_190" d="M480.966 39.525c1.332-7.006 2.418-14.406 3.158-22.152-3.503 3.01-7.253 5.87-11.79 8.782-.89 7.795-2.172 15.244-3.85 22.2 4.44-2.466 8.733-5.377 12.482-8.83z" class="st32"/><path id="svg_191" d="M416.683 131.88c3.158.69 6.414 1.183 9.768 1.38 4.935-3.897 9.72-8.19 14.308-12.925-3.206.05-6.512-.197-10.31-.64-4.39 4.44-9.078 8.533-13.765 12.184z" class="st33"/><path id="svg_192" d="M448.553 96.852c3.848-.247 7.795-.84 11.594-1.826 3.453-5.772 6.66-11.988 9.57-18.648-3.453 1.184-7.3 2.17-11.74 2.96-2.763 6.216-5.97 12.185-9.424 17.514z" class="st31"/><path id="svg_193" d="M434.197 115.697c3.453.346 7.104.296 10.706.1 4.49-5.132 8.78-10.657 12.728-16.725-3.354.69-7.054 1.085-11.346 1.282-3.8 5.477-7.844 10.706-12.087 15.343z" class="st33"/><path id="svg_194" d="M376.87 154.13c2.368 1.085 5.032 2.022 7.598 2.86 5.673-2.17 11.347-4.736 17.12-7.745-2.567-.69-5.083-1.53-7.944-2.713-5.575 2.91-11.298 5.476-16.774 7.597z" class="st33"/><path id="svg_195" d="M397.393 144.608c2.862.888 5.92 1.578 9.078 2.022 5.625-3.157 11.2-6.76 16.627-10.804-3.01-.247-6.167-.74-9.67-1.53-5.18 3.85-10.706 7.4-16.034 10.312z" class="st33"/><path id="svg_196" d="M354.52 161.184c2.27 1.184 4.64 2.17 7.056 3.06 6.167-1.53 12.68-3.504 19.487-5.97-2.368-.79-4.686-1.777-7.252-3.01-6.66 2.467-13.27 4.44-19.29 5.92z" class="st34"/><path id="svg_197" d="M314.314 166.858c1.628 1.134 3.552 2.22 5.377 3.206 2.96-.098 7.747-.296 14.012-.937-1.53-1.085-2.91-2.17-4.54-3.355-6.264.69-11.543.987-14.848 1.086z" class="st35"/><path id="svg_198" d="M333.01 165.328c2.074 1.184 4.343 2.17 6.71 3.108 5.033-.69 10.657-1.628 16.676-2.96-1.973-.987-3.848-2.072-6.02-3.305-6.166 1.382-12.234 2.467-17.365 3.158z" class="st34"/></g><g id="svg_199"><path id="svg_200" d="M409.53 46.432s25.506-19.488 44.006-20.82c-8.83 19.636-35.373 48.496-56.192 45.388 0 0 2.763-2.368 5.92-6.463 3.207-4.242 5.082-11.593 6.266-18.105z" class="st79"/><path id="svg_201" d="M399.17 79.338s23.63-13.123 40.602-10.163c-12.383 15.59-38.876 37.74-56.932 30.242 0 0 3.206-1.825 6.56-5.08 3.602-3.455 7.204-9.424 9.77-15z" class="st79"/><path id="svg_202" d="M381.655 105.732s25.95-7.647 41.836-1.086c-15.49 12.53-45.535 27.58-61.568 16.33 0 0 2.614-.542 6.61-3.058 4.194-2.517 9.423-7.302 13.123-12.186z" class="st79"/><path id="svg_203" d="M359.504 128.475s25.605-.493 38.48 9.472c-17.266 7.598-48.495 13.814-60.335-.444 0 0 2.515.1 6.807-1.085 4.54-1.38 10.46-4.39 15.047-7.943z" class="st79"/><path id="svg_204" d="M329.657 142.19s19.388 6.364 26.443 17.267c-14.998 1.135-40.06-2.368-45.19-16.18 0 0 1.874.74 5.426.936 3.7.148 8.98-.64 13.32-2.023z" class="st79"/></g><g id="svg_205"><path id="svg_206" d="M405.583 53.19s12.778-9.768 22.052-10.46c-4.39 9.868-17.76 24.323-28.17 22.745 0 0 1.382-1.135 3.01-3.207 1.578-2.12 2.516-5.772 3.108-9.078z" class="st68"/><path id="svg_207" d="M395.272 84.32s11.94-6.66 20.523-5.18c-6.265 7.943-19.684 19.142-28.81 15.294 0 0 1.627-.888 3.304-2.565 1.874-1.728 3.7-4.737 4.982-7.55z" class="st68"/><path id="svg_208" d="M376.377 110.27s13.665-4.045 22.102-.542c-8.24 6.61-24.077 14.554-32.513 8.584 0 0 1.43-.296 3.453-1.628 2.27-1.332 5.033-3.848 6.957-6.413z" class="st68"/><path id="svg_209" d="M354.373 131.287s12.73-.296 19.142 4.736c-8.633 3.8-24.174 6.858-30.045-.246 0 0 1.283.05 3.355-.592 2.368-.69 5.28-2.17 7.548-3.898z" class="st68"/><path id="svg_210" d="M324.723 142.782s9.917 3.256 13.518 8.782c-7.695.592-20.522-1.234-23.137-8.288 0 0 .937.394 2.763.493 1.973.147 4.588-.248 6.857-.988z" class="st68"/></g><g id="svg_211"><path id="svg_212" d="M373.565 50.23c-9.03 6.808-10.262 21.954-10.262 21.954s12.876 6.463 28.96 1.727c15.984-4.785 17.464-33.2 17.464-33.2s-27.134 2.712-36.162 9.52zm15.688 20.228c-11.594 3.157-20.82-1.43-20.82-1.43s.89-10.46 7.45-15.048c6.513-4.638 26.098-6.266 26.098-6.266s-1.133 19.586-12.727 22.744z" class="st80"/><path id="svg_213" d="M363.796 74.158c-10.656 3.75-16.428 17.81-16.428 17.81s10.31 10.064 27.035 10.458c16.675.296 26.74-26.344 26.74-26.344s-26.69-5.674-37.347-1.924zm8.782 24.026c-12.038-.543-19.438-7.746-19.438-7.746s4.045-9.72 11.692-12.087c7.647-2.416 26.79 1.974 26.79 1.974s-7.006 18.402-19.044 17.86z" class="st80"/><path id="svg_214" d="M350.82 94.83c-10.26.838-18.598 11.89-18.598 11.89s6.76 11.247 21.41 15.44c14.654 4.144 29.652-16.97 29.652-16.97s-22.2-11.2-32.463-10.36zm2.22 23.137C342.633 114.76 337.7 106.67 337.7 106.67s5.822-7.598 13.074-7.944c7.252-.394 23.09 7.943 23.09 7.943s-10.41 14.504-20.82 11.297z" class="st80"/><path id="svg_215" d="M334.245 109.432c-10.212-1.283-20.573 7.844-20.573 7.844s4.292 12.383 17.76 19.487c13.47 7.105 32.463-10.557 32.463-10.557s-19.487-15.442-29.65-16.774zm-2.615 23.138c-9.57-5.328-12.68-14.208-12.68-14.208s7.204-6.217 14.456-5.082c7.154 1.184 20.967 12.482 20.967 12.482s-13.22 12.087-22.743 6.808z" class="st80"/><path id="svg_216" d="M316.09 119.644c-7.795-3.996-18.698.395-18.698.395s-.05 11.15 8.683 20.62 28.96.84 28.96.84-11.15-17.958-18.945-21.856zm-8.634 17.76c-6.117-6.955-6.117-14.898-6.117-14.898s7.547-2.91 12.974 0c5.426 3.01 13.22 15.935 13.22 15.935s-13.91 5.872-20.078-1.035z" class="st80"/></g><path id="svg_217" d="M296.8 125.81c28.318.396 57.13-34.583 57.13-34.583s26.74-34.14 29.502-46.818c-13.27 1.726-22.25 7.547-25.803 20.77-19.685 56.043-61.077 52.49-61.077 52.49l.247 8.14z" class="st11"/><path id="svg_218" d="M380.077 44.705c.148-.148-22.94-.592-32.857 30.39-1.382 4.34-2.96 8.683-5.18 12.68-4.194 7.547-9.325 16.378-9.325 16.378s21.46-11.692 47.362-59.448z" class="st38"/></g><g id="svg_219"><path id="svg_220" d="M138.485 52.056c-.296-.494.098-1.086.64-1.086 6.217.247 10.805 2.714 13.32 8.83 9.67 19.587-10.063-.936-13.96-7.744z" class="st28"/><path id="svg_221" d="M98.622 134.79c-3.552.79-6.76 1.184-9.768 1.48-1.085-.84-2.17-1.677-3.305-2.565 3.255-.198 6.56-.74 9.718-1.48 1.085.937 2.17 1.776 3.354 2.565z" class="st0"/><path id="svg_222" d="M116.185 129.314c-6.66 2.664-12.432 4.39-17.563 5.476-1.134-.84-2.22-1.677-3.354-2.565 6.314-1.43 12.136-3.553 17.267-5.822 1.184.987 2.368 1.973 3.65 2.91z" class="st0"/><path id="svg_223" d="M75.09 77.907c.542 1.036.986 2.072 1.578 3.108-9.225.444-16.576-.148-22.694-1.184-.64-1.38-1.233-2.762-1.776-4.094 7.894 1.875 15.935 2.368 22.892 2.17z" class="st0"/><path id="svg_224" d="M65.716 100.848c-4.292-.198-8.04-.642-11.347-1.332-.84-1.332-1.63-2.615-2.468-3.947 3.8.986 7.647 1.48 11.545 1.726.69 1.184 1.43 2.368 2.27 3.552z" class="st0"/><path id="svg_225" d="M85.154 95.717c.79 1.184 1.58 2.467 2.467 3.65-8.88 1.382-15.934 1.727-21.904 1.48-.84-1.183-1.58-2.367-2.368-3.65 7.696.493 15.294-.296 21.806-1.48z" class="st0"/><path id="svg_226" d="M100.842 115.648c-7.45 2.467-13.764 3.8-19.29 4.54-1.332-1.333-2.614-2.714-3.946-4.096 7.35-.64 14.257-2.32 19.832-4.095 1.135 1.184 2.27 2.467 3.404 3.65z" class="st0"/><path id="svg_227" d="M77.704 116.092c1.332 1.382 2.566 2.763 3.947 4.095-3.748.444-7.152.592-10.36.592-1.43-1.432-2.81-2.96-4.193-4.54 3.503.197 7.055.1 10.607-.148z" class="st0"/><path id="svg_228" d="M173.562 153.34c-4.095 4.095-8.042 6.907-11.89 9.225-1.43-.345-2.812-.64-4.292-1.036 4.933-2.566 9.374-5.575 13.222-8.684.986.148 1.973.346 2.96.494z" class="st0"/><path id="svg_229" d="M118.455 147.025c-2.862 1.085-5.526 1.924-8.09 2.664-1.63-.84-3.257-1.728-4.934-2.665 3.158-.543 6.118-1.233 9.03-2.072 1.38.74 2.663 1.43 3.995 2.072z" class="st0"/><path id="svg_230" d="M138.337 155.708c-2.566 1.233-4.983 2.12-7.35 3.01-1.136-.395-2.27-.84-3.405-1.283 2.615-.84 5.08-1.826 7.548-2.96 1.036.444 2.12.838 3.207 1.233z" class="st0"/><path id="svg_231" d="M151.608 147.864c-4.835 3.453-9.226 5.92-13.27 7.844-1.087-.395-2.172-.79-3.208-1.184 4.884-2.27 9.226-4.983 13.074-7.795 1.085.394 2.27.788 3.404 1.134z" class="st0"/><path id="svg_232" d="M132.762 139.87c-5.28 3.16-10.015 5.527-14.307 7.204-1.332-.64-2.615-1.38-3.947-2.12 5.822-1.826 11.05-4.195 15.49-6.612.94.543 1.827.987 2.764 1.53z" class="st0"/><path id="svg_233" d="M194.134 156.103c-.74-.1-1.48-.148-2.17-.247-3.553 3.552-7.894 6.907-13.025 9.818-5.132-.69-10.953-1.727-17.22-3.11 3.8-2.317 7.796-5.13 11.89-9.224-.986-.148-1.972-.346-2.96-.494-3.847 3.11-8.287 6.118-13.22 8.683-6.07-1.53-12.482-3.405-19.093-5.822 4.045-1.924 8.436-4.39 13.27-7.844-1.134-.395-2.318-.79-3.403-1.184-3.848 2.812-8.19 5.574-13.074 7.795-5.476-2.122-11.002-4.59-16.626-7.45 4.292-1.677 9.028-3.996 14.307-7.203-.887-.493-1.824-.987-2.712-1.48-4.44 2.417-9.67 4.786-15.49 6.61-5.38-2.96-10.707-6.314-15.936-10.162 5.13-1.085 10.903-2.86 17.563-5.476-1.283-.938-2.467-1.924-3.7-2.862-5.13 2.27-10.953 4.44-17.267 5.822-4.687-3.65-9.275-7.647-13.666-12.087 5.575-.69 11.79-2.072 19.29-4.54-1.135-1.183-2.27-2.466-3.355-3.65-5.575 1.678-12.482 3.404-19.833 4.095-4.242-4.588-8.238-9.72-11.94-15.195 5.97.247 12.976-.148 21.906-1.48-.84-1.184-1.677-2.467-2.467-3.65-6.512 1.183-14.11 1.973-21.756 1.48-3.404-5.378-6.513-11.15-9.374-17.367 6.118 1.086 13.518 1.58 22.694 1.184-.543-1.036-1.036-2.12-1.58-3.108-6.955.198-14.996-.296-22.94-2.22-2.762-6.56-5.18-13.567-7.202-21.066 6.02 2.32 13.37 4.243 22.792 5.526-.345-.987-.69-1.973-1.036-2.91-7.497-1.826-15.687-4.49-23.334-8.585-1.58-6.955-2.86-14.257-3.848-22.002 5.575 3.552 12.482 7.005 21.806 10.064-.345-1.727-.444-2.664-.444-2.664 7.745 2.17 20.178 7.4 69.562 12.827 11.1 1.233 20.375 8.93 23.977 19.487 21.36 63.1 69.955 50.765 69.955 50.765l-.64 10.706h.196s-.048.296-.196.84l-1.628 27.577c-4.934.493-9.374.69-13.42.69-3.107 3.65-6.857 7.203-11.15 10.213-3.255-.1-8.287-.345-14.602-1.085 3.355-2.615 7.006-5.625 11.1-10.015z" class="st71"/><g id="svg_234"><path id="svg_235" d="M21.858 68.83C29.01 71.1 34.93 74.305 42.33 76.77c2.912 6.66 6.12 12.926 9.572 18.65-12.383-3.06-23.878-10.657-30.044-26.593z" class="st6"/><path id="svg_236" d="M141.15 173.518c4.538-3.158 9.323-5.18 14.503-7.696 6.068 1.332 11.693 2.27 16.725 2.96-8.634 3.502-18.895 5.476-31.23 4.736z" class="st29"/><path id="svg_237" d="M30.49 92.214c8.585 2.122 14.95 5.378 23.928 7.252 3.947 6.07 8.24 11.693 12.73 16.725-14.11-.887-28.27-6.857-36.657-23.976z" class="st9"/><path id="svg_238" d="M61.177 135.826c9.226-.247 17.267 1.283 27.776.395 5.427 4.095 11.05 7.648 16.626 10.805-13.52 2.27-29.11.444-44.403-11.2z" class="st12"/><path id="svg_239" d="M46.624 118.756c8.386.247 15.59 1.826 24.716 1.974 4.588 4.736 9.374 9.077 14.307 12.925-13.22.938-27.33-2.318-39.023-14.9z" class="st9"/><path id="svg_240" d="M15.69 7.605c4.39 3.256 8.14 6.66 12.236 10.163.69 7.795 1.825 15.195 3.157 22.2C22.647 32.372 16.53 21.913 15.69 7.606z" class="st6"/><path id="svg_241" d="M15 37.897c6.364 3.354 11.643 7.35 18.056 11 1.925 8.043 4.342 15.59 7.105 22.547C28.42 65.82 18.454 55.657 15 37.897z" class="st6"/><path id="svg_242" d="M109.87 165.08c7.105-2.564 13.716-3.748 21.165-6.363 6.71 2.467 13.32 4.44 19.487 5.92-11.396 4.342-25.11 5.674-40.65.444z" class="st30"/><path id="svg_243" d="M192.358 170.41c-6.61 3.552-14.504 6.068-23.878 6.512 3.256-2.862 6.463-5.13 9.818-7.45 6.265.642 11.15.84 14.06.938z" class="st3"/><path id="svg_244" d="M86.24 154.425c8.04-2.023 15.44-2.417 24.173-4.785 5.772 3.01 11.495 5.525 17.17 7.745-11.792 3.7-25.853 4.144-41.344-2.96z" class="st30"/></g><g id="svg_245"><path id="svg_246" d="M52.198 75.687c-4.094-.987-8.24-2.417-12.087-4.292-2.76-7.055-5.08-14.554-7.053-22.546 3.502 2.022 7.35 3.896 11.988 5.623 1.973 7.5 4.44 14.702 7.153 21.214z" class="st31"/><path id="svg_247" d="M30.984 39.92c-1.332-7.006-2.417-14.406-3.157-22.152 3.503 3.01 7.252 5.87 11.79 8.782.89 7.795 2.172 15.244 3.85 22.2-4.392-2.466-8.684-5.377-12.483-8.83z" class="st32"/><path id="svg_248" d="M95.317 132.274c-3.158.69-6.414 1.184-9.768 1.38-4.935-3.896-9.72-8.188-14.308-12.924 3.206.05 6.512-.198 10.31-.642 4.342 4.39 9.078 8.535 13.765 12.186z" class="st33"/><path id="svg_249" d="M63.447 97.246C59.6 97 55.652 96.408 51.853 95.42c-3.453-5.77-6.66-11.987-9.57-18.648 3.453 1.184 7.3 2.17 11.74 2.96 2.763 6.217 5.97 12.186 9.424 17.514z" class="st31"/><path id="svg_250" d="M77.803 116.092c-3.453.345-7.104.296-10.706.1-4.49-5.132-8.78-10.657-12.728-16.726 3.354.69 7.054 1.086 11.346 1.283 3.75 5.426 7.844 10.655 12.087 15.342z" class="st33"/><path id="svg_251" d="M135.13 154.524c-2.368 1.085-5.032 2.023-7.598 2.86-5.673-2.17-11.347-4.735-17.12-7.744 2.567-.69 5.083-1.53 7.944-2.714 5.575 2.91 11.298 5.476 16.774 7.598z" class="st33"/><path id="svg_252" d="M114.607 145.002c-2.862.888-5.92 1.58-9.078 2.023-5.625-3.157-11.2-6.76-16.627-10.804 3.01-.246 6.167-.74 9.67-1.53 5.18 3.85 10.656 7.352 16.034 10.312z" class="st33"/><path id="svg_253" d="M157.48 161.58c-2.27 1.183-4.64 2.17-7.056 3.057-6.167-1.53-12.68-3.502-19.487-5.97 2.368-.788 4.686-1.775 7.252-3.008 6.66 2.465 13.22 4.39 19.29 5.92z" class="st34"/><path id="svg_254" d="M197.637 167.252c-1.628 1.135-3.552 2.22-5.377 3.207-2.96-.1-7.746-.297-14.01-.938 1.528-1.086 2.91-2.17 4.537-3.355 6.315.69 11.594.987 14.85 1.085z" class="st35"/><path id="svg_255" d="M178.99 165.723c-2.074 1.184-4.343 2.17-6.71 3.108-5.033-.69-10.657-1.627-16.676-2.96 1.973-.986 3.848-2.07 6.02-3.305 6.166 1.382 12.184 2.467 17.365 3.158z" class="st34"/></g><g id="svg_256"><path id="svg_257" d="M102.47 46.826S76.964 27.34 58.464 26.006c8.83 19.636 35.373 48.497 56.192 45.39 0 0-2.763-2.37-5.92-6.464-3.207-4.243-5.082-11.594-6.266-18.106z" class="st79"/><path id="svg_258" d="M112.83 79.732S89.2 66.61 72.23 69.57c12.383 15.59 38.876 37.74 56.932 30.242 0 0-3.206-1.826-6.56-5.082-3.602-3.453-7.204-9.472-9.77-14.998z" class="st79"/><path id="svg_259" d="M130.345 106.127s-25.95-7.647-41.836-1.086c15.49 12.532 45.535 27.58 61.568 16.33 0 0-2.614-.542-6.61-3.058-4.194-2.516-9.423-7.3-13.123-12.185z" class="st79"/><path id="svg_260" d="M152.496 128.87s-25.605-.494-38.48 9.472c17.266 7.598 48.495 13.814 60.335-.444 0 0-2.515.1-6.807-1.085-4.588-1.382-10.46-4.44-15.047-7.943z" class="st79"/><path id="svg_261" d="M182.343 142.536s-19.388 6.364-26.443 17.267c14.998 1.134 40.06-2.368 45.19-16.182 0 0-1.874.74-5.426.938-3.7.148-8.98-.592-13.32-2.022z" class="st79"/></g><g id="svg_262"><path id="svg_263" d="M106.417 53.585s-12.777-9.768-22.052-10.46c4.39 9.868 17.76 24.323 28.17 22.744 0 0-1.382-1.135-3.01-3.207-1.578-2.17-2.516-5.822-3.108-9.078z" class="st68"/><path id="svg_264" d="M116.68 84.715s-11.94-6.66-20.524-5.18c6.265 7.943 19.684 19.142 28.81 15.294 0 0-1.627-.89-3.304-2.567-1.875-1.776-3.7-4.736-4.983-7.548z" class="st68"/><path id="svg_265" d="M135.623 110.616s-13.665-4.045-22.102-.543c8.19 6.61 24.027 14.554 32.464 8.585 0 0-1.43-.296-3.454-1.63-2.22-1.28-4.983-3.797-6.907-6.412z" class="st68"/><path id="svg_266" d="M157.577 131.682s-12.728-.296-19.142 4.736c8.634 3.8 24.174 6.858 30.045-.247 0 0-1.282.05-3.355-.59-2.318-.69-5.23-2.17-7.548-3.898z" class="st68"/><path id="svg_267" d="M187.277 143.177s-9.917 3.256-13.518 8.78c7.695.593 20.522-1.232 23.137-8.287 0 0-.937.395-2.763.494-1.973.148-4.637-.247-6.857-.987z" class="st68"/></g><g id="svg_268"><path id="svg_269" d="M102.224 41.103s1.48 28.417 17.464 33.203c16.083 4.686 28.96-1.727 28.96-1.727s-1.234-15.147-10.262-21.955c-9.028-6.808-36.162-9.522-36.162-9.522zm7.795 6.957s19.585 1.628 26.097 6.265c6.56 4.588 7.45 15.047 7.45 15.047s-9.226 4.588-20.82 1.43C111.153 67.696 110.02 48.06 110.02 48.06z" class="st80"/><path id="svg_270" d="M110.808 76.476s10.064 26.64 26.74 26.345c16.773-.394 27.035-10.458 27.035-10.458s-5.772-14.06-16.43-17.81c-10.655-3.75-37.345 1.924-37.345 1.924zm9.57 4.243s19.143-4.392 26.79-1.974c7.647 2.368 11.692 12.087 11.692 12.087s-7.4 7.203-19.438 7.745c-12.038.494-19.043-17.86-19.043-17.86z" class="st80"/><path id="svg_271" d="M128.716 105.535s14.998 21.164 29.65 16.97c14.653-4.143 21.412-15.44 21.412-15.44s-8.338-11.052-18.6-11.89c-10.26-.79-32.462 10.36-32.462 10.36zm9.374 1.53s15.837-8.29 23.09-7.944c7.25.297 13.072 7.944 13.072 7.944s-4.884 8.04-15.343 11.298c-10.41 3.206-20.82-11.298-20.82-11.298z" class="st80"/><path id="svg_272" d="M148.154 126.55s18.994 17.614 32.463 10.56c13.468-7.105 17.76-19.488 17.76-19.488s-10.41-9.078-20.572-7.845c-10.213 1.332-29.65 16.774-29.65 16.774zm9.473-.344s13.764-11.347 20.967-12.482c7.252-1.135 14.455 5.082 14.455 5.082s-3.11 8.83-12.68 14.208c-9.522 5.23-22.743-6.808-22.743-6.808z" class="st80"/><path id="svg_273" d="M176.966 141.845s20.178 8.683 28.96-.84c8.732-9.47 8.682-20.62 8.682-20.62s-10.903-4.342-18.698-.395c-7.795 3.946-18.944 21.855-18.944 21.855zm7.45-3.01s7.794-12.975 13.22-15.935c5.428-2.91 12.976 0 12.976 0s-.05 7.943-6.117 14.9c-6.118 6.906-20.08 1.035-20.08 1.035z" class="st80"/></g><path id="svg_274" d="M215.2 126.206c-28.318.394-57.13-34.584-57.13-34.584s-26.74-34.14-29.502-46.82c13.272 1.728 22.25 7.55 25.803 20.77 19.685 56.046 61.077 52.494 61.077 52.494l-.247 8.14z" class="st11"/><path id="svg_275" d="M131.923 45.1c-.148-.15 22.94-.593 32.857 30.39 1.382 4.34 2.96 8.683 5.18 12.68 4.194 7.547 9.325 16.378 9.325 16.378s-21.46-11.693-47.362-59.45z" class="st38"/></g><g id="svg_276"><path id="svg_277" d="M372.973 50.576c.592-.543-.148-1.086-1.086-.987-4.933.59-11 4.143-14.06 9.915-3.404 6.512 10.607-4.588 15.146-8.93z" class="st39"/><path id="svg_278" d="M371.147 51.217c.247-.148.05-.444-.345-.444-2.023-.148-4.638.84-6.266 2.86-1.825 2.27 4.54-1.084 6.61-2.416z" class="st40"/></g><g id="svg_279"><path id="svg_280" d="M139.67 50.428c-.544-.543.147-1.086 1.133-.938 4.934.69 10.953 4.39 13.864 10.163 3.256 6.562-10.51-4.835-14.998-9.225z" class="st39"/><path id="svg_281" d="M141.494 51.118c-.247-.197 0-.444.346-.444 2.022-.098 4.637.938 6.216 3.01 1.825 2.27-4.49-1.184-6.562-2.566z" class="st40"/></g><path id="svg_282" d="M320.875 160.05c-.79.05-1.628.147-2.368.197 4.342 4.933 8.24 8.387 11.94 11.347 1.43-.148 2.91-.247 4.44-.395-5.576-3.306-10.164-7.155-14.012-11.15z" class="st0"/><path id="svg_283" d="M329.015 165.772c1.58 1.184 3.158 2.32 4.687 3.404 1.924-.197 3.848-.394 5.97-.69-2.368-.987-4.54-2.023-6.61-3.207-1.383.147-2.715.344-4.047.492z" class="st0"/><g id="svg_284"><g id="svg_285"><path id="svg_286" d="M256.543 196.606s-18.303 2.91-.198 30.983c0 0 14.95-26.74.198-30.984z" class="st41"/><path id="svg_287" d="M256.74 197.544s-15.244 2.417-.148 25.85c-.05 0 12.482-22.25.148-25.85z" class="st42"/></g><g id="svg_288"><path id="svg_289" d="M229.606 182.3s-16.774-.69-5.575 27.528c0-.05 18.008-21.165 5.576-27.53z" class="st41"/><path id="svg_290" d="M229.606 183.138s-14.01-.543-4.736 22.99c0 0 15.146-17.613 4.736-22.99z" class="st42"/></g><g id="svg_291"><path id="svg_292" d="M243.765 184.47s-19.043.79-3.8 31.624c.05 0 18.452-25.556 3.8-31.624z" class="st43"/><path id="svg_293" d="M243.814 185.407s-15.935.642-3.157 26.444c.05 0 15.343-21.312 3.157-26.443z" class="st42"/></g><g id="svg_294"><path id="svg_295" d="M273.07 185.506s-14.01 8.683 10.508 25.555c0 0 3.108-27.182-10.508-25.554z" class="st41"/><path id="svg_296" d="M273.464 186.246s-11.74 7.203 8.782 21.313c.05 0 2.615-22.695-8.782-21.314z" class="st42"/></g><g id="svg_297"><path id="svg_298" d="M284.417 173.567s-14.603 8.782 10.557 26.443c0-.05 3.503-27.972-10.557-26.443z" class="st44"/><path id="svg_299" d="M284.91 174.258s-12.186 7.35 8.83 22.102c0 .05 2.862-23.336-8.83-22.102z" class="st42"/></g><g id="svg_300"><path id="svg_301" d="M265.226 188.27s-15.59 6.856 7.104 26.985c-.05-.05 6.956-26.838-7.104-26.986z" class="st43"/><path id="svg_302" d="M265.522 189.01s-13.025 5.722 5.92 22.545c.05 0 5.92-22.398-5.92-22.546z" class="st42"/></g><g id="svg_303"><path id="svg_304" d="M257.085 186.197s-16.773 2.614.05 27.33c-.05 0 13.567-23.68-.05-27.33z" class="st45"/><path id="svg_305" d="M257.233 186.986s-14.01 2.22 0 22.89c.05 0 11.397-19.83 0-22.89z" class="st42"/></g><g id="svg_306"><path id="svg_307" d="M223.686 172.827s-16.577-1.036-5.476 25.703c0 0 17.81-19.437 5.476-25.703z" class="st44"/><path id="svg_308" d="M223.686 173.616s-13.913-.79-4.588 21.46c0 0 14.85-16.18 4.588-21.46z" class="st42"/></g><g id="svg_309"><path id="svg_310" d="M237.598 174.406s-18.747-.69-6.167 30.785c.05.05 20.08-23.63 6.168-30.784z" class="st44"/><path id="svg_311" d="M237.598 175.442s-15.64-.543-5.13 25.703c-.05 0 16.773-19.783 5.13-25.703z" class="st42"/></g><g id="svg_312"><path id="svg_313" d="M250.475 174.75s-17.564 1.826-1.678 29.405c-.05 0 15.49-24.618 1.678-29.404z" class="st44"/><path id="svg_314" d="M250.524 175.64s-14.653 1.528-1.43 24.568c0 0 13.024-20.523 1.43-24.57z" class="st42"/></g><g id="svg_315"><path id="svg_316" d="M263.203 174.11s-15.837 7.696 8.387 28.27c-.1 0 6.265-28.468-8.387-28.27z" class="st44"/><path id="svg_317" d="M263.598 174.9s-13.222 6.413 6.956 23.63c0 0 5.28-23.78-6.956-23.63z" class="st42"/></g><g id="svg_318"><path id="svg_319" d="M274.5 173.32s-15.145 8.98 10.706 27.43c0 0 3.848-28.81-10.705-27.43z" class="st44"/><path id="svg_320" d="M274.994 174.16s-12.63 7.498 8.93 22.89c0-.05 3.206-24.075-8.93-22.89z" class="st42"/></g><g id="svg_321"><path id="svg_322" d="M288.314 165.427s-12.48 9.472 12.334 23.138c.05 0 .444-25.9-12.334-23.138z" class="st44"/><path id="svg_323" d="M288.857 166.118s-10.41 7.942 10.31 19.29c0 0 .297-21.708-10.31-19.29z" class="st42"/></g><g id="svg_324"><path id="svg_325" d="M256 162.27s-17.07 4.44 2.763 29.354c0 0 11.593-26.69-2.763-29.355z" class="st43"/><path id="svg_326" d="M256.247 163.157s-14.258 3.7 2.27 24.47c.048 0 9.767-22.25-2.27-24.47z" class="st42"/></g><g id="svg_327"><path id="svg_328" d="M216.335 157.04s-17.613.148-4.588 29.058c0 0 17.86-22.99 4.588-29.058z" class="st44"/><path id="svg_329" d="M216.335 157.88s-14.702.048-3.848 24.27c.05.1 14.948-19.14 3.848-24.27z" class="st42"/></g><g id="svg_330"><path id="svg_331" d="M235.97 162.713s-17.563 1.036-2.96 29.256c0 .098 16.576-23.83 2.96-29.257z" class="st44"/><path id="svg_332" d="M236.02 163.7s-14.653.937-2.467 24.47c0 0 13.863-20.03 2.466-24.47z" class="st42"/></g><g id="svg_333"><path id="svg_334" d="M276.277 159.9s-16.182 7.007 7.153 28.517c0 .05 7.5-28.072-7.153-28.516z" class="st44"/><path id="svg_335" d="M276.622 160.74s-13.468 5.87 6.02 23.878c0 0 6.215-23.533-6.02-23.878z" class="st42"/></g><g id="svg_336"><path id="svg_337" d="M294.136 152.304s-15.146 9.077 10.804 27.33c0 .05 3.75-28.81-10.804-27.33z" class="st44"/><path id="svg_338" d="M294.58 153.093s-12.63 7.598 9.077 22.89c0 0 3.06-24.123-9.077-22.89z" class="st42"/></g><g id="svg_339"><path id="svg_340" d="M262.858 153.98s-17.465 7.747 8.09 30.885c0 .098 7.746-30.588-8.09-30.884z" class="st41"/><path id="svg_341" d="M263.252 154.92s-14.554 6.46 6.808 25.85c-.05 0 6.463-25.654-6.808-25.85z" class="st42"/></g><g id="svg_342"><path id="svg_343" d="M280.322 148.505s-17.07 8.683 9.72 30.49c0-.05 6.116-31.082-9.72-30.49z" class="st41"/><path id="svg_344" d="M280.766 149.393s-14.258 7.203 8.09 25.407c.05.05 5.132-25.85-8.09-25.407z" class="st42"/></g><g id="svg_345"><path id="svg_346" d="M293.346 143.325s-11.2 8.98 12.827 24.223c0 .05-1.085-26.295-12.827-24.223z" class="st41"/><path id="svg_347" d="M293.79 144.065s-9.324 7.5 10.706 20.227c.05 0-.84-22.052-10.706-20.227z" class="st42"/></g><g id="svg_348"><path id="svg_349" d="M245.69 154.327s-19.044 2.072-1.678 31.92c0 .048 16.724-26.79 1.677-31.92z" class="st41"/><path id="svg_350" d="M245.788 155.363s-15.837 1.776-1.43 26.64c.048 0 14.06-22.398 1.43-26.64z" class="st42"/></g><g id="svg_351"><path id="svg_352" d="M227.682 151.268s-19.093-.888-6.61 31.278c.098.05 20.72-23.83 6.61-31.278z" class="st41"/><path id="svg_353" d="M227.633 152.304s-15.985-.74-5.477 26.098c0 .1 17.268-19.98 5.477-26.098z" class="st42"/></g><g id="svg_354"><path id="svg_355" d="M212.733 147.32s-14.356-.344-5.87 26.79c0 0 16.23-20.77 5.87-26.79z" class="st41"/><path id="svg_356" d="M212.635 148.21s-11.99-.346-4.934 22.397c.05 0 13.618-17.415 4.935-22.398z" class="st42"/></g><g id="svg_357"><path id="svg_358" d="M255.605 145.2s-18.796 3.354.395 31.968c.1.05 14.998-27.824-.395-31.968z" class="st44"/><path id="svg_359" d="M255.803 146.236s-15.738 2.762.345 26.69c0 0 12.482-23.336-.345-26.69z" class="st42"/></g><g id="svg_360"><path id="svg_361" d="M269.715 142.585s-17.464 7.696 8.042 30.982c0 0 7.893-30.637-8.042-30.982z" class="st43"/><path id="svg_362" d="M270.11 143.473s-14.653 6.463 6.66 25.85c.1 0 6.66-25.603-6.66-25.85z" class="st42"/></g><g id="svg_363"><path id="svg_364" d="M285.65 137.405s-16.774 9.127 10.508 30.242c0-.1 5.33-31.278-10.508-30.242z" class="st44"/><path id="svg_365" d="M286.094 138.293s-14.01 7.647 8.782 25.21c0-.05 4.44-26.05-8.782-25.21z" class="st42"/></g><g id="svg_366"><path id="svg_367" d="M298.773 139.97s-6.068 7.35 13.715 19.043c0 .05-5.82-20.868-13.715-19.043z" class="st44"/><path id="svg_368" d="M299.267 140.513s-5.082 6.117 11.445 15.935c0-.05-4.835-17.514-11.445-15.935z" class="st42"/></g><g id="svg_369"><path id="svg_370" d="M240.213 143.62s-19.093-1.084-6.956 31.23c.05 0 21.016-23.68 6.956-31.23z" class="st43"/><g id="svg_371"><path id="svg_372" d="M240.213 144.657s-15.935-.937-5.822 26.05c-.048-.05 17.515-19.785 5.823-26.05z" class="st42"/></g></g><g id="svg_373"><path id="svg_374" d="M225.116 140.61s-18.6-4.39-12.284 29.553c.05-.05 24.766-19.734 12.284-29.552z" class="st44"/><path id="svg_375" d="M224.92 141.55s-15.492-3.652-10.262 24.666c.05 0 20.67-16.478 10.26-24.667z" class="st42"/></g><g id="svg_376"><path id="svg_377" d="M212.092 141.45s-8.98-3.256-13.222 19.34c0 .098 17.712-12.58 13.222-19.34z" class="st44"/><path id="svg_378" d="M211.796 142.14s-7.5-2.713-11.05 16.183c-.05 0 14.75-10.607 11.05-16.182z" class="st42"/></g><g id="svg_379"><path id="svg_380" d="M249.833 130.794s18.155 6.117-5.18 31.574c-.05-.1-10.607-29.847 5.18-31.574z" class="st44"/><path id="svg_381" d="M249.488 131.73s15.096 5.132-4.39 26.395c.048-.098-8.783-24.963 4.39-26.394z" class="st42"/></g><g id="svg_382"><path id="svg_383" d="M236.365 128.968s17.07 8.585-9.522 30.49c0 .05-6.315-30.884 9.522-30.49z" class="st41"/><path id="svg_384" d="M235.674 129.955s14.307 7.154-7.943 25.506c-.048 0-5.376-25.8 7.944-25.505z" class="st46"/></g><g id="svg_385"><path id="svg_386" d="M223.538 125.318s15.935 10.607-13.173 29.157c0 0-2.516-31.476 13.173-29.157z" class="st41"/><path id="svg_387" d="M222.995 126.206s13.27 8.83-11.002 24.37c0-.098-2.12-26.393 11.002-24.37z" class="st46"/></g><g id="svg_388"><g id="svg_389"><path id="svg_390" d="M260.687 129.71s-18.155 6.116 5.18 31.573c0-.1 10.607-29.897-5.18-31.574z" class="st44"/></g><path id="svg_391" d="M260.933 130.597s-15.096 5.13 4.39 26.394c0-.05 8.832-24.913-4.39-26.393z" class="st42"/></g><g id="svg_392"><path id="svg_393" d="M274.45 128.03s-17.07 8.585 9.523 30.49c0 .05 6.315-30.982-9.522-30.49z" class="st41"/><path id="svg_394" d="M274.846 128.92s-14.307 7.153 7.943 25.505c0-.05 5.327-25.85-7.944-25.506z" class="st46"/></g><g id="svg_395"><path id="svg_396" d="M287.18 123.295s-15.936 10.607 13.172 29.157c0 0 2.565-31.525-13.172-29.157z" class="st41"/><path id="svg_397" d="M287.722 124.084s-13.27 8.83 11.002 24.372c0 0 2.17-26.296-11.002-24.372z" class="st46"/></g></g><g id="svg_398"><path id="svg_399" d="M232.566 97.937c9.67-1.825 19.142 3.8 23.533 13.024v22.646c-2.96 6.02-8.29 10.46-15 11.692-11.89 2.17-23.334-6.61-25.752-19.684-2.27-13.123 5.378-25.506 17.218-27.677z" class="st3"/><path id="svg_400" d="M279.483 97.74c-9.67-1.826-19.142 3.798-23.532 13.024v22.645c2.96 6.017 8.29 10.458 14.998 11.69 11.89 2.172 23.336-6.61 25.753-19.684 2.27-13.123-5.426-25.456-17.217-27.676z" class="st3"/></g><g id="svg_401"><path id="svg_402" d="M255.556 128.18s-5.28-27.332-5.723-33.154c-.05-1.036.1-2.072.592-3.01.888-1.677 2.17-2.515 2.17-2.515s-1.084 4.44.494 5.822c2.81 2.368 2.466 32.857 2.466 32.857z" class="st47"/><path id="svg_403" d="M257.53 128.376s-6.957-26.59-1.185-53.38c1.43 3.996 2.32 7.647 2.763 10.114.395 1.973.444 3.996.148 6.02l-1.677 11.592c-.347 3.207-.445 6.414-.396 9.62l.345 16.034z" class="st48"/><path id="svg_404" d="M252.695 122.26s2.614-23.583 9.324-31.92c-1.827-.297-4.096 4.834-4.096 4.834s-2.32 5.032-5.23 27.085z" class="st49"/><path id="svg_405" d="M260.637 135.382l-9.077-29.6-1.974-8.832c-.394-1.332-.444-2.664-.148-3.996.395-1.875 2.418-6.61 4.145-8.19-2.91.297-5.773 3.01-7.203 4.687-.938 1.235-1.43 2.665-1.332 4.244.098 1.628.345 4.144 1.184 7.5 1.874 7.597 6.364 19.486 14.405 34.188z" class="st49"/><path id="svg_406" d="M254.62 130.794s1.43-29.157 4.34-34.485 7.006-7.007 8.93-10.41c1.085 2.91-2.566 9.866-4.194 13.073-.838 1.628-1.48 3.305-1.924 5.032l-7.153 26.79z" class="st47"/></g><path id="svg_407" d="M254.767 118.362s.74-9.57 3.65-13.37c-.79-.1-1.776 2.22-1.776 2.22s-.788 1.332-1.873 11.15z" class="st50"/><path id="svg_408" d="M254.816 118.954s-5.032-9.423-7.203-11.002c-2.22-1.58-4.144-1.48-5.624-2.467.147 1.332 3.008 3.454 4.29 4.39.642.494 1.234 1.037 1.777 1.63l6.76 7.45z" class="st51"/><path id="svg_409" d="M254.62 120.384s-2.665-11.84-10.362-21.362c.247 1.875.642 3.454.987 4.49.247.888.64 1.677 1.135 2.417l3.01 4.29c.79 1.235 1.48 2.468 2.12 3.75l3.11 6.414z" class="st52"/><g id="svg_410"><path id="svg_411" d="M256 123.936l-.247-13.616.247-3.996c0-.592.148-1.184.395-1.727.394-.74 1.825-2.565 2.713-3.108-1.283-.198-2.812.69-3.6 1.282-.544.444-.94.986-1.087 1.677-.147.69-.344 1.825-.393 3.354-.1 3.453.345 8.98 1.973 16.132z" class="st53"/><path id="svg_412" d="M255.063 119.2s3.058-10.212 4.884-12.185c1.825-1.974 3.75-2.27 4.983-3.553.098 1.382-2.27 3.947-3.306 5.18-.543.593-1.036 1.234-1.43 1.974l-5.13 8.584z" class="st51"/><path id="svg_413" d="M255.26 120.286s.444-11.643.987-14.406c.098-.493.296-.938.64-1.332.593-.69 1.284-.938 1.284-.938s-1.035 1.974-.493 2.763c.938 1.382-2.417 13.913-2.417 13.913z" class="st54"/><path id="svg_414" d="M255.556 120.582s.247-12.087 5.92-22.99c.148 1.874.05 3.502-.05 4.637-.05.887-.295 1.775-.64 2.614l-2.073 4.785c-.542 1.33-.937 2.713-1.332 4.094l-1.824 6.858z" class="st52"/><path id="svg_415" d="M254.865 123.74l-2.466-13.42-1.037-3.848c-.1-.592-.346-1.135-.74-1.628-.543-.69-2.27-2.17-3.306-2.467 1.184-.444 2.862.148 3.75.543.64.296 1.085.79 1.38 1.43.297.642.692 1.727 1.086 3.207.84 3.355 1.48 8.88 1.332 16.182z" class="st52"/><path id="svg_416" d="M254.865 120.04s-2.762-11.3-3.798-13.913c-.198-.444-.494-.89-.888-1.185-.742-.542-1.482-.64-1.482-.64s1.382 1.726 1.036 2.614c-.69 1.53 5.13 13.123 5.13 13.123z" class="st54"/><path id="svg_417" d="M255.556 117.82s-3.108-9.868-3.108-20.524c.543 1.48.987 2.812 1.184 3.75.197.74.296 1.528.345 2.318l.198 4.54c.098 1.28.197 2.465.394 3.748l.986 6.167z" class="st51"/></g><g id="svg_418"><path id="svg_419" d="M255.704 123.887l-5.328 8.732c-.197.345-.247.79-.148 1.134l5.87 15.984 5.575-15.984c.148-.395.05-.79-.148-1.135l-5.08-8.684c-.05-.345-.544-.345-.74-.05z" class="st81"/></g><g id="svg_420"><path id="svg_421" d="M255.9 129.56l-2.91 4.786c-.098.197-.147.444-.05.64l3.208 8.734 3.06-8.733c.048-.197.048-.444-.05-.64l-2.763-4.786c-.1-.197-.395-.197-.494 0z" class="st82"/></g><g id="svg_422"><ellipse id="svg_423" ry="36" rx="34.5" cy="300.451" cx="1314.226" class="st57" transform="rotate(-79.613 448.03 360.143) scale(.49334)"/><ellipse id="svg_424" ry="34.5" rx="36" cy="-339.337" cx="610.193" class="st57" transform="rotate(-10.387 1874.923 333.756) scale(.49334)"/></g><g id="svg_425"><ellipse id="svg_426" ry="14.85" rx="15.244" cy="123.936" cx="273.464" class="st41"/><ellipse id="svg_427" ry="14.85" rx="15.244" cy="123.838" cx="238.733" class="st41"/></g><g id="svg_428"><ellipse id="svg_429" ry="22.3" rx="22.3" cy="296.651" cx="1303.526" class="st58" transform="rotate(-79.613 442.71 358.26) scale(.49334)"/><ellipse id="svg_430" ry="22.3" rx="22.3" cy="-342.737" cx="620.893" class="st58" transform="rotate(-10.387 1880.18 332.076) scale(.49334)"/></g><g id="svg_431"><ellipse id="svg_432" ry="17.4" rx="17.4" cy="295.951" cx="1300.526" class="st11" transform="rotate(-79.613 441.265 357.94) scale(.49334)"/><ellipse id="svg_433" ry="17.4" rx="17.4" cy="-343.137" cx="623.793" class="st11" transform="rotate(-10.387 1881.602 331.863) scale(.49334)"/></g><g id="svg_434"><g id="svg_435"><ellipse id="svg_436" ry="13.1" rx="13.1" cy="293.951" cx="1297.926" class="st83" transform="rotate(-79.613 439.98 356.952) scale(.49334)"/><g id="svg_437"><path id="svg_438" class="st60" d="M267.692 114.86h.05v13.566h-.05z"/><path id="svg_439" class="st60" d="M265.924 115.09l.047-.012 3.512 13.104-.047.013z" stroke-width=".49333"/><path id="svg_440" class="st60" d="M264.29 115.765l.042-.025 6.783 11.75-.043.024z" stroke-width=".49334"/><path id="svg_441" class="st60" d="M262.885 116.85l.035-.035 9.594 9.594-.035.034z" stroke-width=".49334"/><path id="svg_442" class="st60" d="M261.804 118.264l.025-.043 11.748 6.784-.025.043z" stroke-width=".49334"/><path id="svg_443" class="st60" d="M261.12 119.9l.014-.05 13.104 3.512-.013.048z" stroke-width=".49333"/><path id="svg_444" class="st60" d="M260.9 121.655v-.05h13.567v.05z" stroke-width=".49335"/><path id="svg_445" class="st60" d="M261.132 123.423l-.013-.047 13.104-3.51.012.046z" stroke-width=".49333"/><path id="svg_446" class="st60" d="M261.806 125.058l-.025-.043 11.75-6.783.025.042z" stroke-width=".49334"/><path id="svg_447" class="st60" d="M262.89 126.46l-.034-.034 9.594-9.593.035.035z" stroke-width=".49334"/><path id="svg_448" class="st60" d="M264.305 127.542l-.043-.024 6.784-11.75.042.025z" stroke-width=".49334"/><path id="svg_449" class="st60" d="M265.94 128.226l-.048-.013 3.512-13.105.047.013z" stroke-width=".49333"/></g><g id="svg_450"><ellipse id="svg_451" ry="10.3" rx="10.3" cy="293.651" cx="1297.826" class="st61" transform="rotate(-79.613 439.915 356.78) scale(.49334)"/><path id="svg_452" d="M272.626 121.52c0-2.418-1.678-4.54-4.144-4.984-2.763-.493-5.378 1.332-5.87 4.046-.05.296-.1.592-.1.888h10.114v.05z" class="st62"/><g id="svg_453"><ellipse id="svg_454" ry="7.7" rx="7.7" cy="293.351" cx="1297.726" transform="rotate(-79.613 439.87 356.67) scale(.49334)"/><ellipse id="svg_455" ry="3.1" rx="2.4" cy="392.953" cx="1311.363" class="st63" transform="matrix(.02475 -.4927 .4927 .02475 42.894 756.314)"/><ellipse id="svg_456" ry="1.6" rx="1.2" cy="392.353" cx="1312.263" class="st64" transform="matrix(.02475 -.4927 .4927 .02475 43.607 756.518)"/></g></g></g><g id="svg_457"><ellipse id="svg_458" ry="13.1" rx="13.1" cy="-345.237" cx="626.293" class="st83" transform="rotate(-10.387 1882.86 330.832) scale(.49334)"/><g id="svg_459"><path id="svg_460" class="st60" d="M244.408 128.405h-.05v-13.567h.05z" stroke-width=".49335"/><path id="svg_461" class="st60" d="M242.657 128.19l-.048-.013 3.51-13.104.048.013z" stroke-width=".49333"/><path id="svg_462" class="st60" d="M241.024 127.515l-.042-.025 6.783-11.75.043.026z" stroke-width=".49334"/><path id="svg_463" class="st60" d="M239.612 126.442l-.035-.035 9.593-9.593.035.035z" stroke-width=".49334"/><path id="svg_464" class="st60" d="M238.525 125.046l-.025-.042 11.75-6.784.024.043z" stroke-width=".49334"/><path id="svg_465" class="st60" d="M237.847 123.42l-.013-.048 13.104-3.51.013.046z" stroke-width=".49333"/><path id="svg_466" class="st60" d="M237.61 121.657v-.05h13.567v.05z" stroke-width=".49335"/><path id="svg_467" class="st60" d="M237.824 119.906l.013-.048 13.104 3.51-.01.05z" stroke-width=".49333"/><path id="svg_468" class="st60" d="M238.5 118.273l.024-.043 11.75 6.784-.026.043z" stroke-width=".49334"/><path id="svg_469" class="st60" d="M239.572 116.86l.035-.034 9.593 9.593-.035.034z" stroke-width=".49334"/><path id="svg_470" class="st60" d="M240.968 115.774l.043-.025 6.784 11.748-.043.025z" stroke-width=".49334"/><path id="svg_471" class="st60" d="M242.595 115.095l.048-.012 3.51 13.104-.047.013z" stroke-width=".49333"/></g><g id="svg_472"><ellipse id="svg_473" ry="10.3" rx="10.3" cy="-345.637" cx="626.493" class="st61" transform="rotate(-10.387 1882.925 330.66) scale(.49334)"/><path id="svg_474" d="M239.424 121.47c0-2.418 1.677-4.54 4.144-4.983 2.762-.494 5.377 1.332 5.87 4.045.05.296.1.592.1.888h-10.114v.05z" class="st62"/><g id="svg_475"><ellipse id="svg_476" ry="7.7" rx="7.7" cy="-345.837" cx="626.593" transform="rotate(-10.387 1882.97 330.55) scale(.49334)"/><ellipse id="svg_477" ry="2.4" rx="3.1" cy="-361.948" cx="521.468" class="st63" transform="matrix(.4927 -.02475 .02475 .4927 -4.86 311.12)"/><ellipse id="svg_478" ry="1.2" rx="1.6" cy="-362.448" cx="520.568" class="st64" transform="matrix(.4927 -.02475 .02475 .4927 -4.847 311.097)"/></g></g></g></g><path id="svg_479" d="M283.085 109.53s-8.634 1.234-18.45 10.41c-2.468 2.32-4.146 5.822-5.922 9.522 0 0-3.6-11.544 5.33-17.514 8.928-6.02 19.042-2.417 19.042-2.417z" class="st65"/><path id="svg_480" d="M228.965 109.53s8.633 1.234 18.45 10.41c2.468 2.32 4.145 5.822 5.92 9.522 0 0 3.602-11.544-5.327-17.514-8.88-6.02-19.043-2.417-19.043-2.417z" class="st65"/><g id="svg_481"><path id="svg_482" d="M256.05 131.04c0-.493.147-7.498.295-9.67.346-4.39 1.332-11.15 6.463-15.046 3.996-3.01 9.818-2.516 14.258-2.22 2.072.098 3.848.246 4.983-.1 8.83-2.564 22.347-17.463 22.347-17.463l-5.426 11.25c-.79 1.578-1.776 3.107-2.86 4.488l-3.652 4.687s5.723 1.283 9.77 6.167c-5.626-1.628-10.904-2.664-14.062-3.108-11.89-1.628-19.93.493-24.716 4.44-5.477 4.687-6.907 15.59-7.4 16.577z" class="st57"/><path id="svg_483" d="M256.05 130.942c0-.493-.15-7.5-.346-9.67-.395-4.39-1.38-11.15-6.562-14.997-4.045-3.01-9.817-2.467-14.307-2.17-2.072.147-3.848.245-4.982-.1-8.83-2.516-22.448-17.366-22.448-17.366l5.476 11.198c.79 1.58 1.827 3.108 2.863 4.44l3.7 4.687s-5.723 1.332-9.72 6.216c5.625-1.676 10.855-2.712 14.06-3.156 11.89-1.727 20.18.345 24.965 4.292 5.525 4.835 6.808 15.69 7.3 16.626z" class="st57"/></g></g></g></svg>